<?xml version="1.0" encoding="UTF-8"?>
<svg version="1.1" xmlns="http://www.w3.org/2000/svg" width="3334" height="3334">
<path d="M0 0 C0 43.56 0 87.12 0 132 C26.65365901 131.88184256 26.65365901 131.88184256 53.30712891 131.72973633 C89.70612194 131.58953964 89.70612194 131.58953964 106 135 C107.10778809 135.22453857 108.21557617 135.44907715 109.35693359 135.68041992 C111.90231691 136.26095753 114.3787174 136.92603519 116.875 137.6875 C117.72884277 137.94023682 118.58268555 138.19297363 119.46240234 138.45336914 C127.80587773 141.04425421 135.43043315 144.67391211 143 149 C143.99257813 149.55429688 144.98515625 150.10859375 146.0078125 150.6796875 C172.40894572 166.40002039 186.58506515 193.06124336 194 222 C201.78196595 257.30921864 197.97574886 296.44523692 178.90625 327.46875 C161.47684742 353.99175393 133.24450987 367.90747755 102.94628906 374.59765625 C84.51005128 378.40886045 65.84601065 378.13258148 47.125 378.0625 C44.77994887 378.05747466 42.4348967 378.05291358 40.08984375 378.04882812 C34.39320609 378.03790518 28.69660802 378.02124917 23 378 C23.00888245 378.82304123 23.01776489 379.64608246 23.0269165 380.49406433 C23.10753626 388.30425457 23.1682026 396.11423903 23.20724869 403.92473888 C23.22799852 407.93885949 23.25608078 411.95263224 23.30175781 415.96655273 C23.34567179 419.85047568 23.36923149 423.73406705 23.37950897 427.61821938 C23.38681967 429.08959475 23.40109206 430.56095489 23.42292023 432.03218651 C23.64033369 447.3134567 20.49791291 460.26081892 10.26171875 471.9921875 C-10.98897899 492.46930523 -41.82605018 485 -69 485 C-69.33 437.81 -69.66 390.62 -70 342 C-76.435 345.96 -76.435 345.96 -83 350 C-100.63168055 359.63975058 -120.12660558 365.33655539 -140 368 C-141.29421875 368.18304687 -142.5884375 368.36609375 -143.921875 368.5546875 C-151.2065218 369.33202681 -158.55675478 369.24432754 -165.875 369.25 C-166.6562323 369.25067474 -167.4374646 369.25134949 -168.24237061 369.25204468 C-180.05176014 369.23584337 -191.48074222 368.84473669 -203 366 C-203.7223584 365.82307617 -204.4447168 365.64615234 -205.18896484 365.46386719 C-233.1384861 358.37393386 -255.67006012 342.95462175 -275 321.8125 C-276 320 -276 320 -275.84375 318.203125 C-274.66591102 315.12765656 -272.76951332 313.31558572 -270.5 310.9375 C-267.03660136 307.25085632 -263.72873491 303.51313669 -260.5625 299.5625 C-256.85538714 294.96961681 -252.97111844 290.5989797 -248.94995117 286.28295898 C-246.32769057 283.46690118 -243.81939257 280.59561597 -241.375 277.625 C-235.67548334 271.08010048 -228.61338336 266.67109979 -219.8828125 265.78515625 C-211.32476215 265.41499836 -204.88463679 268.50284496 -197.4375 272.4375 C-182.60502234 280.09336208 -166.04096496 282.60957639 -149.75 278.4375 C-134.56315541 273.45077491 -123.4768838 265.86461673 -116.19140625 251.48046875 C-112.64367176 241.11643127 -112.71369509 230.37375376 -112.74462891 219.5456543 C-112.74187277 217.92292099 -112.73818912 216.30018904 -112.73365784 214.67745972 C-112.72559841 211.20562093 -112.72336404 207.73384633 -112.72560501 204.26199913 C-112.72846023 198.75825714 -112.71400413 193.25464122 -112.69662476 187.75093079 C-112.64980786 172.10814286 -112.62566823 156.46536474 -112.61914062 140.82250977 C-112.61537591 132.16553351 -112.59723744 123.50870139 -112.56404626 114.85178691 C-112.54397181 109.39486631 -112.5413925 103.93832097 -112.55232644 98.48137891 C-112.55495596 95.06954152 -112.54082189 91.6579173 -112.52224541 88.24613571 C-112.51697788 86.68019073 -112.51832539 85.11420513 -112.52728081 83.5482769 C-112.59742545 70.19182958 -110.6347888 57.71499039 -104.25 45.75 C-103.90710938 45.08871094 -103.56421875 44.42742187 -103.2109375 43.74609375 C-93.07010937 24.68577811 -76.894201 10.1664936 -56.05078125 3.70703125 C-37.26025508 -1.6409173 -20.39250416 0 0 0 Z M23 216 C23 242.07 23 268.14 23 295 C57.7932755 297.25295673 57.7932755 297.25295673 88.3125 283.375 C96.46030435 274.68290913 98.3940036 264.28359389 98.2734375 252.76953125 C97.54526373 242.73113574 94.2402556 234.08254707 87 227 C68.87710211 211.72058136 45.52165599 216 23 216 Z " fill="#FEFEFE" transform="translate(589,1414)"/>
<path d="M0 0 C3.40724444 16.95174509 1.75361199 32.74599945 -7.125 47.75 C-18.17511926 63.7429683 -33.27208306 70.77009721 -50.31274414 78.78637695 C-59.20954395 83.00963841 -67.66791367 87.7579287 -76 93 C-77.00417969 93.63035156 -78.00835937 94.26070312 -79.04296875 94.91015625 C-96.29826457 106.12014843 -112.96151008 118.65781646 -127.36425781 133.39501953 C-129.00834392 135.00818701 -130.71881687 136.47837582 -132.5 137.9375 C-135.69644521 140.63073544 -138.37448207 143.58101322 -141.07421875 146.765625 C-143.19192394 149.22267849 -145.40605319 151.57157933 -147.625 153.9375 C-186.8677617 197.15196114 -212.45442544 253.29031081 -222.8125 310.4375 C-223.00739014 311.51273926 -223.20228027 312.58797852 -223.40307617 313.69580078 C-226.44751403 331.49013085 -227.37581072 349.02883102 -227.3125 367.0625 C-227.30976578 368.68115967 -227.30976578 368.68115967 -227.30697632 370.33251953 C-227.26127784 386.41124055 -226.80035212 402.1295166 -224 418 C-223.82839355 419.0120752 -223.65678711 420.02415039 -223.47998047 421.06689453 C-213.08173319 481.12397423 -186.83148501 535.06407284 -147 581 C-145.94425781 582.22589844 -145.94425781 582.22589844 -144.8671875 583.4765625 C-135.35237675 594.29378081 -125.18581299 604.91928194 -113.80078125 613.78149414 C-110.9715201 616.022559 -108.23513083 618.34969153 -105.4921875 620.6953125 C-99.26668586 625.93466942 -92.6739334 630.5325866 -85.875 635 C-85.28640198 635.38907532 -84.69780396 635.77815063 -84.09136963 636.17901611 C-74.32034173 642.62877115 -64.45130702 648.70870821 -54 654 C-53.07574219 654.47099121 -52.15148437 654.94198242 -51.19921875 655.42724609 C24.98502956 693.9269708 113.5963345 701.79101848 195.05395508 675.37792969 C197.37523398 674.60145684 199.68880778 673.8059838 202 673 C203.21187988 672.57944336 203.21187988 672.57944336 204.44824219 672.15039062 C216.44354697 667.9266261 227.89961251 662.84517617 239.29931641 657.21240234 C257.06997782 648.43866362 275.413654 642.96935839 295.171875 648.90234375 C305.32347832 652.84239973 313.31257786 658.34225903 321 666 C321.60585938 666.50015625 322.21171875 667.0003125 322.8359375 667.515625 C324 669 324 669 323.80395508 670.90551758 C322.78216874 673.56749905 321.62956957 674.37268693 319.30078125 675.99609375 C318.51566162 676.5478125 317.73054199 677.09953125 316.92163086 677.66796875 C316.06061768 678.25191406 315.19960449 678.83585937 314.3125 679.4375 C313.41474854 680.05367187 312.51699707 680.66984375 311.59204102 681.3046875 C261.39358345 715.32398001 204.23287548 737.45521731 144 745 C143.3348941 745.08613556 142.66978821 745.17227112 141.98452759 745.26101685 C127.86901463 747.04344262 113.83798701 747.34115677 99.62133789 747.31567383 C95.96665244 747.31252512 92.31278872 747.33603263 88.65820312 747.36132812 C19.14857533 747.54641855 -49.39102881 726.01765392 -108 689 C-109.06863281 688.32710937 -110.13726562 687.65421875 -111.23828125 686.9609375 C-125.55482684 677.65419279 -139.17094051 667.25777699 -152 656 C-152.70898438 655.39027344 -153.41796875 654.78054688 -154.1484375 654.15234375 C-167.1673703 642.91355075 -179.89952451 631.16233486 -191 618 C-191.77214844 617.11699219 -192.54429687 616.23398438 -193.33984375 615.32421875 C-211.09379123 594.90667847 -225.82781855 572.57815635 -239 549 C-239.4213623 548.25057129 -239.84272461 547.50114258 -240.27685547 546.72900391 C-262.76068065 506.44072833 -276.56688211 460.72225569 -282 415 C-282.08613556 414.28371429 -282.17227112 413.56742859 -282.26101685 412.82943726 C-284.01248551 397.85926416 -284.36145702 382.99949733 -284.3125 367.9375 C-284.30976578 366.18761276 -284.30976578 366.18761276 -284.30697632 364.40237427 C-284.26144367 347.08024098 -283.75213742 330.13313898 -281 313 C-280.83371094 311.89188965 -280.66742188 310.7837793 -280.49609375 309.64208984 C-267.36174939 223.11351569 -221.77766313 132.78077595 -151.61328125 78.0546875 C-149.16930723 76.1331175 -146.82254254 74.12571875 -144.48071289 72.08178711 C-136.42610309 65.08773563 -127.8303879 58.97162923 -119 53 C-118.31421875 52.5359375 -117.6284375 52.071875 -116.921875 51.59375 C-85.85544803 30.72469982 -38.43343757 0 0 0 Z " fill="#FFFFFF" transform="translate(474,1293)"/>
<path d="M0 0 C0.80993408 0.00141495 1.61986816 0.0028299 2.4543457 0.00428772 C5.01126994 0.00983242 7.56810276 0.02237418 10.125 0.03515625 C11.87109247 0.04017841 13.61718634 0.04474006 15.36328125 0.04882812 C19.61722209 0.05978365 23.87109561 0.07700931 28.125 0.09765625 C28.14784588 30.68871967 28.16552683 61.27978113 28.17606533 91.87085105 C28.17731593 95.4879567 28.17861027 99.10506234 28.17993164 102.72216797 C28.18032511 103.80225261 28.18032511 103.80225261 28.18072652 104.90415715 C28.1850698 116.54091602 28.19294995 128.17766991 28.2021528 139.81442584 C28.21152669 151.76776431 28.21706351 163.72110018 28.21908849 175.67444217 C28.22033372 182.38297398 28.22343725 189.09149384 28.23073006 195.80002213 C28.23754626 202.12168538 28.2396056 208.44333281 28.23810768 214.76499939 C28.2383815 217.0779771 28.24035326 219.39095538 28.24420547 221.7039299 C28.29350624 252.84805359 28.29350624 252.84805359 25.25 265.34765625 C25.07001465 266.11360107 24.8900293 266.8795459 24.70458984 267.66870117 C24.19275021 269.81564737 23.66318756 271.95718607 23.125 274.09765625 C22.8878125 275.05800781 22.650625 276.01835938 22.40625 277.0078125 C20.47954971 284.06091179 17.35618012 290.55908894 14.125 297.09765625 C13.5990625 298.16242188 13.073125 299.2271875 12.53125 300.32421875 C0.88321331 322.90602573 -17.23424336 343.69572333 -40.875 354.09765625 C-41.205 350.13765625 -41.535 346.17765625 -41.875 342.09765625 C-42.61621094 342.58234375 -43.35742188 343.06703125 -44.12109375 343.56640625 C-64.86304809 356.76813974 -87.47535177 364.8276003 -111.875 368.09765625 C-113.16921875 368.28070312 -114.4634375 368.46375 -115.796875 368.65234375 C-123.0815218 369.42968306 -130.43175478 369.34198379 -137.75 369.34765625 C-138.5312323 369.34833099 -139.3124646 369.34900574 -140.11737061 369.34970093 C-151.92676014 369.33349962 -163.35574222 368.94239294 -174.875 366.09765625 C-175.5973584 365.92073242 -176.3197168 365.74380859 -177.06396484 365.56152344 C-205.0134861 358.47159011 -227.54506012 343.052278 -246.875 321.91015625 C-247.875 320.09765625 -247.875 320.09765625 -247.71875 318.30078125 C-246.54091102 315.22531281 -244.64451332 313.41324197 -242.375 311.03515625 C-238.91160136 307.34851257 -235.60373491 303.61079294 -232.4375 299.66015625 C-228.73038714 295.06727306 -224.84611844 290.69663595 -220.82495117 286.38061523 C-218.20269057 283.56455743 -215.69439257 280.69327222 -213.25 277.72265625 C-207.55048334 271.17775673 -200.48838336 266.76875604 -191.7578125 265.8828125 C-183.19976215 265.51265461 -176.75963679 268.60050121 -169.3125 272.53515625 C-154.48002234 280.19101833 -137.91596496 282.70723264 -121.625 278.53515625 C-106.43815541 273.54843116 -95.3518838 265.96227298 -88.06640625 251.578125 C-84.51867176 241.21408752 -84.58869509 230.47141001 -84.61962891 219.64331055 C-84.61687277 218.02057724 -84.61318912 216.39784529 -84.60865784 214.77511597 C-84.60059841 211.30327718 -84.59836404 207.83150258 -84.60060501 204.35965538 C-84.60346023 198.85591339 -84.58900413 193.35229747 -84.57162476 187.84858704 C-84.52480786 172.20579911 -84.50066823 156.56302099 -84.49414062 140.92016602 C-84.49037591 132.26318976 -84.47223744 123.60635764 -84.43904626 114.94944316 C-84.41897181 109.49252256 -84.4163925 104.03597722 -84.42732644 98.57903516 C-84.42995596 95.16719777 -84.41582189 91.75557355 -84.39724541 88.34379196 C-84.39197788 86.77784698 -84.39332539 85.21186138 -84.40228081 83.64593315 C-84.47242545 70.28948583 -82.5097888 57.81264664 -76.125 45.84765625 C-75.78210938 45.18636719 -75.43921875 44.52507812 -75.0859375 43.84375 C-64.94510937 24.78343436 -48.769201 10.26414985 -27.92578125 3.8046875 C-18.60945565 1.15317953 -9.64842256 -0.06483815 0 0 Z " fill="#FEFEFE" transform="translate(560.875,1413.90234375)"/>
<path d="M0 0 C0.8809433 -0.00175232 1.7618866 -0.00350464 2.66952515 -0.00531006 C5.56363942 -0.00968742 8.45769181 -0.00680281 11.35180664 -0.00341797 C13.38473014 -0.00409273 15.41765356 -0.00506419 17.45057678 -0.00631714 C21.70973479 -0.00778901 25.96887179 -0.00565797 30.22802734 -0.00097656 C35.64058347 0.00468765 41.05308963 0.00145956 46.46564388 -0.00454903 C50.66714338 -0.00819652 54.86863142 -0.00699646 59.0701313 -0.00442123 C61.062872 -0.00376178 63.05561378 -0.00454537 65.0483532 -0.00690079 C97.48807937 -0.0368056 97.48807937 -0.0368056 111.07446289 2.87939453 C111.91162842 3.05422363 112.74879395 3.22905273 113.61132812 3.40917969 C120.65632638 4.95334461 127.26889274 7.09622028 133.82446289 10.12939453 C135.23405273 10.77328125 135.23405273 10.77328125 136.67211914 11.43017578 C151.84619067 19.00654061 161.88446102 31.67211549 167.76196289 47.31689453 C175.12561886 69.98986963 175.36132825 95.35284659 164.44555664 116.84423828 C156.93676373 130.12273038 147.09446102 138.0648858 132.82446289 143.12939453 C133.64688477 143.34853516 134.46930664 143.56767578 135.31665039 143.79345703 C147.87729268 147.36149168 156.54853729 153.00553328 165.82446289 162.12939453 C166.54891602 162.84095703 167.27336914 163.55251953 168.01977539 164.28564453 C178.79424946 175.59269717 184.21273167 191.62333799 184.82446289 207.12939453 C184.86442383 208.07685547 184.90438477 209.02431641 184.94555664 210.00048828 C185.42868683 233.21915693 179.99843623 255.73583971 163.82446289 273.12939453 C143.33630341 292.81978497 113.68991687 298.31809666 86.30859375 298.24291992 C84.85900881 298.24263739 83.40942373 298.24279708 81.95983887 298.24336243 C78.04932679 298.24364781 74.13884576 298.23779308 70.22834086 298.23078847 C66.13241788 298.22451169 62.03649407 298.22394772 57.94056702 298.22276306 C50.19538788 298.21966245 42.45022295 298.21146627 34.70505005 298.20141357 C25.88276206 298.19021288 17.06047338 298.18473204 8.23818004 298.17971814 C-9.89973372 298.16928253 -28.03763427 298.1517078 -46.17553711 298.12939453 C-46.2442534 264.68460673 -46.29709135 231.23983655 -46.3287331 197.7949938 C-46.33248507 193.84355369 -46.33636805 189.89211373 -46.34033203 185.94067383 C-46.34111896 185.15403694 -46.34190589 184.36740006 -46.34271667 183.55692569 C-46.3557588 170.83174466 -46.37940605 158.10660443 -46.4069955 145.38144758 C-46.43508293 132.31732364 -46.45172042 119.25322103 -46.45780259 106.18906814 C-46.46191212 98.13242157 -46.47487619 90.07589033 -46.49928651 82.01927928 C-46.51706853 75.8340178 -46.51889431 69.64884365 -46.51486015 63.4635601 C-46.51568405 60.9316207 -46.52163233 58.39967684 -46.53315353 55.86776352 C-46.54814244 52.40323535 -46.54446702 48.9391953 -46.53630066 45.47465515 C-46.54503918 44.47948606 -46.55377771 43.48431696 -46.56278104 42.45899123 C-46.48774087 30.63077288 -43.27120409 20.12509288 -35.42944336 11.12548828 C-25.53688362 1.60312829 -13.11213857 -0.03260092 0 0 Z M11.82446289 52.12939453 C11.82446289 74.89939453 11.82446289 97.66939453 11.82446289 121.12939453 C23.10633789 121.19126953 34.38821289 121.25314453 46.01196289 121.31689453 C49.54810303 121.34420654 53.08424316 121.37151855 56.72753906 121.3996582 C59.9526095 121.40970371 59.9526095 121.40970371 63.1776886 121.41572571 C64.59214629 121.4202728 66.00659384 121.43069679 67.42097473 121.44612122 C80.76142045 121.58407893 93.99687108 120.81892927 104.82446289 112.12939453 C112.13091268 104.65266731 114.75892381 95.58079237 115.01196289 85.31689453 C114.87073783 75.89718292 112.69393704 68.50817592 106.29321289 61.43798828 C98.57300098 54.17297755 88.77617429 51.99830133 78.46386719 52.01586914 C77.38012566 52.0156501 77.38012566 52.0156501 76.27449036 52.01542664 C73.89918967 52.01612031 71.52396854 52.02388708 69.14868164 52.03173828 C67.49672997 52.0336044 65.84477774 52.03502739 64.19282532 52.036026 C59.85438497 52.03983592 55.51597834 52.04965315 51.17755127 52.06072998 C45.9670659 52.07277997 40.75656924 52.07735361 35.54607391 52.08318329 C27.63884682 52.09286574 19.73169364 52.11203296 11.82446289 52.12939453 Z M11.82446289 172.12939453 C11.82446289 196.87939453 11.82446289 221.62939453 11.82446289 247.12939453 C25.2170327 247.18766589 25.2170327 247.18766589 38.60961914 247.22705078 C44.08019949 247.23895842 49.55071222 247.25297183 55.02124023 247.28027344 C59.43680813 247.30216957 63.85230341 247.31399815 68.26792145 247.31914902 C69.94383129 247.32281491 71.61973763 247.32997252 73.29561615 247.34085464 C89.01403573 247.43876496 105.60853295 247.25812423 117.82446289 235.94189453 C125.39783152 227.72369198 127.11478987 218.02598248 126.96899414 207.18408203 C126.50237651 197.3220554 122.94901474 188.78940752 115.76196289 181.81689453 C101.89438437 171.12856436 82.39383527 171.81342574 65.73071289 171.93408203 C64.33715985 171.93703534 62.94360455 171.93906781 61.55004883 171.94018555 C56.47481892 171.95052377 51.39963699 171.97844455 46.32446289 172.00439453 C34.93946289 172.04564453 23.55446289 172.08689453 11.82446289 172.12939453 Z " fill="#FFFFFF" transform="translate(2564.175537109375,1432.87060546875)"/>
<path d="M0 0 C0.84481934 0.19867676 1.68963867 0.39735352 2.56005859 0.60205078 C28.05188719 6.82468585 49.74107833 18.21356677 69 36 C69.87011719 36.78761719 70.74023438 37.57523438 71.63671875 38.38671875 C92.93126652 58.58396293 105.78221561 84.89009145 113 113 C113.27336182 114.05840088 113.27336182 114.05840088 113.55224609 115.13818359 C123.06801916 154.49845088 115.39063052 200.27718088 94.80859375 234.7109375 C90.14150373 242.30145927 84.8504786 249.27838415 79 256 C78.20722656 256.92683594 77.41445312 257.85367187 76.59765625 258.80859375 C51.42511607 287.48063399 15.44533813 302.69884531 -22.11621094 305.82128906 C-64.61212263 308.45479798 -105.48865671 299.80308759 -138.58203125 271.81640625 C-141.10193477 269.59016078 -143.55826268 267.31161339 -146 265 C-146.88429688 264.18015625 -147.76859375 263.3603125 -148.6796875 262.515625 C-176.48320266 235.89356233 -191.30730778 197.38025524 -192.28515625 159.25390625 C-192.57595087 144.3397261 -192.20524139 129.62370004 -189 115 C-188.7831958 113.99960693 -188.7831958 113.99960693 -188.56201172 112.97900391 C-183.67221128 91.24836251 -174.27371159 70.17016281 -160 53 C-159.54367187 52.43974121 -159.08734375 51.87948242 -158.6171875 51.30224609 C-133.50917107 20.52982088 -100.24197348 2.69786316 -60.91015625 -2.61328125 C-41.20323311 -4.56828126 -19.29892005 -4.56335203 0 0 Z M-108 81 C-108.72832031 81.71671875 -109.45664063 82.4334375 -110.20703125 83.171875 C-128.20558156 102.05792779 -135.44749154 128.92172289 -135.1484375 154.4609375 C-134.18668398 177.39116607 -127.41389573 199.54652154 -112 217 C-110.96939453 218.22589844 -110.96939453 218.22589844 -109.91796875 219.4765625 C-93.48782625 238.52516904 -69.81997269 250.15621416 -44.77001953 252.18017578 C-18.03808416 253.76534262 5.45857443 245.50775671 25.66430664 228.10864258 C46.30467706 209.69805412 57.11585132 185.12198244 59.1640625 157.8125 C60.78554013 128.4097056 50.87341613 101.90424333 31.37109375 80.0546875 C15.14506068 63.09647535 -7.26226384 51.6358638 -30.984375 50.76171875 C-61.34318936 50.17545772 -86.43195966 59.46344585 -108 81 Z " fill="#FFFFFF" transform="translate(1512,1431)"/>
<path d="M0 0 C7 0 7 0 8.93359375 1.28515625 C9.42988281 1.87167969 9.92617187 2.45820312 10.4375 3.0625 C12.73191549 5.68176432 15.09021297 8.03357673 17.73828125 10.29296875 C21.84388483 13.84247241 25.80672742 17.52199292 29.75 21.25 C36.4495214 27.55708081 43.20304042 33.79812306 50 40 C51.97971934 41.81190207 53.95903508 43.6242298 55.9375 45.4375 C56.67661621 46.11474121 56.67661621 46.11474121 57.43066406 46.80566406 C61.67811665 50.69985223 65.91194508 54.60869105 70.14428711 58.51928711 C73.75526582 61.85452815 77.37449671 65.18055733 81 68.5 C87.90111729 74.81930071 94.77303161 81.17009509 101.64550781 87.52050781 C107.91278851 93.31113258 114.1872557 99.09354178 120.48071289 104.85571289 C124.7126428 108.7321468 128.92942924 112.62481704 133.14453125 116.51953125 C136.75544595 119.85467204 140.37458153 123.18063499 144 126.5 C150.90111729 132.81930071 157.77303161 139.17009509 164.64550781 145.52050781 C171.33106934 151.6976012 178.02490061 157.86532782 184.73803711 164.01245117 C187.94999908 166.95388693 191.16069096 169.89670644 194.37109375 172.83984375 C195.18942688 173.5900177 195.18942688 173.5900177 196.02429199 174.35534668 C197.34954008 175.57021794 198.6747718 176.78510705 200 178 C200.00146656 177.19916017 200.00293312 176.39832033 200.00444412 175.57321262 C200.04153126 156.06721351 200.10057131 136.5613932 200.18390274 117.05553532 C200.22367484 107.62255132 200.25607663 98.18965054 200.27099609 88.7565918 C200.28402209 80.53262253 200.31101094 72.30883648 200.35461307 64.08497041 C200.37720659 59.73236976 200.39291195 55.3799949 200.39188385 51.0273304 C200.39113599 46.92567623 200.40913707 42.82452082 200.44116783 38.72299576 C200.44964685 37.22228332 200.45143037 35.7215148 200.44580269 34.22078896 C200.41434925 24.53934077 201.51210431 17.48097894 206.75 9.25 C212.72665897 3.27334103 217.50415651 1.88796522 226 0 C236.56 0 247.12 0 258 0 C258 98.34 258 196.68 258 298 C250.13835377 298 250.13835377 298 246.3125 294.1875 C245.46558594 293.36894531 244.61867188 292.55039063 243.74609375 291.70703125 C242.83988281 290.81371094 241.93367188 289.92039062 241 289 C238.97389517 287.10786347 236.92438273 285.24185707 234.875 283.375 C234.36235596 282.90408936 233.84971191 282.43317871 233.3215332 281.94799805 C230.57850971 279.42837225 227.81382684 276.94020668 225 274.5 C221.12182987 271.13677362 217.34472189 267.66664329 213.56689453 264.19189453 C208.74415109 259.75776372 203.8765888 255.3748176 199 251 C197.33307353 249.50028872 195.66640851 248.00028679 194 246.5 C193.175 245.7575 192.35 245.015 191.5 244.25 C184 237.5 184 237.5 181.4921875 235.2421875 C179.85260121 233.76707382 178.21200345 232.29308348 176.5703125 230.8203125 C171.9796939 226.69902232 167.41552893 222.55126212 162.875 218.375 C159.61609506 215.37819989 156.34500451 212.40085453 153 209.5 C149.12182987 206.13677362 145.34472189 202.66664329 141.56689453 199.19189453 C136.74415109 194.75776372 131.8765888 190.3748176 127 186 C125.33307353 184.50028872 123.66640851 183.00028679 122 181.5 C120.7625 180.38625 120.7625 180.38625 119.5 179.25 C112 172.5 112 172.5 109.4921875 170.2421875 C107.85260121 168.76707382 106.21200345 167.29308348 104.5703125 165.8203125 C99.9796939 161.69902232 95.41552893 157.55126212 90.875 153.375 C87.00767416 149.81871262 83.09973052 146.31918198 79.12890625 142.87890625 C75.3721592 139.56331848 71.7057767 136.14802704 68.02734375 132.74609375 C65.82582606 130.72783523 63.58160977 128.76830242 61.31079102 126.82836914 C60.68842056 126.29627335 60.06605011 125.76417755 59.42481995 125.21595764 C58.95462936 124.81469162 58.48443878 124.4134256 58 124 C57.99853344 124.78022491 57.99706688 125.56044981 57.99555588 126.36431789 C57.95846615 145.36960772 57.89942269 164.37471407 57.81609726 183.37985897 C57.77632786 192.57070639 57.74392471 201.76146845 57.72900391 210.95239258 C57.7159765 218.96541348 57.68898408 226.97824639 57.64538693 234.99116141 C57.62279654 239.23198075 57.60708786 243.47256844 57.60811615 247.71345329 C57.6088642 251.71005355 57.59085569 255.7061422 57.55883217 259.70261002 C57.5503555 261.16462048 57.54856803 262.62668849 57.55419731 264.08871269 C57.59091167 275.09524572 56.21809678 283.23227921 48.64453125 291.49609375 C35.58580288 303.43816126 16.19313886 298 0 298 C0 199.66 0 101.32 0 0 Z " fill="#FFFFFF" transform="translate(1678,1433)"/>
<path d="M0 0 C0.79148437 0.19335938 1.58296875 0.38671875 2.3984375 0.5859375 C19.92471211 5.00845539 36.45462022 12.1796565 51 23 C51.54430664 23.39912598 52.08861328 23.79825195 52.64941406 24.20947266 C70.62701919 37.47238754 86.21020913 53.70942785 96 74 C96 74.99 96 75.98 96 77 C90.83797393 79.16572395 85.66449179 81.30035931 80.47875977 83.40869141 C78.72116936 84.12807875 76.96682156 84.85544736 75.21606445 85.59130859 C53.45560349 94.72287514 53.45560349 94.72287514 42.58300781 91.22167969 C36.2120914 88.46677469 31.21621661 83.54052442 26.875 78.25 C13.03846692 62.2094174 -7.66740654 53.67288535 -28.375 51.25 C-29.91537249 51.14543829 -31.45729522 51.06117622 -33 51 C-33.74765625 50.96003906 -34.4953125 50.92007812 -35.265625 50.87890625 C-61.72824713 50.13409735 -84.94306649 60.05064895 -104 78 C-122.04130338 95.05353476 -132.62069074 120.3814196 -134 145 C-134.05285156 145.91394531 -134.10570312 146.82789063 -134.16015625 147.76953125 C-134.97213477 175.83574529 -124.66358766 201.54216349 -105.49487305 221.95874023 C-88.23408189 239.71381177 -65.89217599 249.84519228 -40.99829102 250.24145508 C-17.62017315 250.32141541 5.64254541 244.14163875 22.73730469 227.28710938 C25.34807974 224.65365513 27.95413344 222.01840534 30.50878906 219.33032227 C35.63865749 214.02850674 40.64748396 209.72548318 48.3125 209.0625 C49.15425781 208.97097656 49.99601562 208.87945313 50.86328125 208.78515625 C61.16756458 209.49092908 71.17973248 214.79130093 80.625 218.6875 C82.1209187 219.30055751 83.61701124 219.91319105 85.11328125 220.52539062 C88.74420897 222.01204927 92.37273987 223.50441646 96 225 C95.20588207 229.67436483 93.39863181 233.18307583 90.9375 237.1875 C90.53337891 237.85096436 90.12925781 238.51442871 89.71289062 239.19799805 C86.21982738 244.83186082 82.34388261 249.98977423 78 255 C77.32582031 255.80695313 76.65164063 256.61390625 75.95703125 257.4453125 C50.93647067 286.52202953 14.56089158 301.57395976 -23.1105957 304.8059082 C-66.40002272 307.71381648 -106.73741229 296.69221184 -140.00732422 268.28613281 C-171.53923738 240.58635739 -189.87416915 203.6227665 -192.65820312 161.71875 C-193.65939208 142.8609125 -192.02919776 124.22046453 -187 106 C-186.82098145 105.3512793 -186.64196289 104.70255859 -186.45751953 104.03417969 C-179.93836031 81.2025837 -166.99738574 61.27589808 -151 44 C-150.26394531 43.18144531 -149.52789063 42.36289063 -148.76953125 41.51953125 C-128.73534811 20.2453213 -101.03404254 6.97902181 -73 0 C-71.74445313 -0.32097656 -70.48890625 -0.64195313 -69.1953125 -0.97265625 C-47.86187102 -5.73287939 -21.1639012 -5.31021521 0 0 Z " fill="#FFFFFF" transform="translate(1196,1432)"/>
<path d="M0 0 C2.31 0 4.62 0 7 0 C9.79366546 5.41563785 12.58522813 10.83235538 15.375 16.25 C15.99507935 17.45414551 15.99507935 17.45414551 16.62768555 18.68261719 C21.70080844 28.53829252 26.7362659 38.40918259 31.66040039 48.34033203 C34.68793939 54.42673615 37.85193519 60.43452506 41.04101562 66.4375 C44.63635764 73.23799188 48.07592247 80.11196632 51.5 87 C55.25110866 94.5457526 59.04050639 102.0613448 63 109.5 C67.55189692 118.05159651 71.87137784 126.71226123 76.18359375 135.38671875 C79.37921302 141.8005146 82.63305866 148.17456595 86 154.5 C90.55189692 163.05159651 94.87137784 171.71226123 99.18359375 180.38671875 C102.37921302 186.8005146 105.63305866 193.17456595 109 199.5 C112.95949367 206.93865532 116.74888139 214.45425263 120.5 222 C124.60259302 230.25271788 128.78156 238.45065712 133.11450195 246.58447266 C137.53812419 254.93338108 141.72662057 263.40040123 145.91577148 271.86865234 C149.35327069 278.80306288 149.35327069 278.80306288 152.98291016 285.63769531 C153.30761795 286.22902252 153.63232574 286.82034973 153.96687317 287.42959595 C154.87419485 289.07075337 155.79094539 290.70668772 156.70825195 292.34228516 C158 295 158 295 158 298 C151.36561363 298.10214499 144.73143303 298.17177544 138.09643555 298.21972656 C135.84342877 298.23973464 133.59047321 298.26694991 131.33764648 298.30175781 C128.08304133 298.35075342 124.82912783 298.37307756 121.57421875 298.390625 C120.08446785 298.42159271 120.08446785 298.42159271 118.56462097 298.45318604 C108.65978309 298.45630268 99.99575539 295.91126303 92.7512207 288.95263672 C86.48308014 281.96356824 82.59218963 273.48175799 78.625 265.0625 C78.07972656 263.92748047 77.53445312 262.79246094 76.97265625 261.62304688 C73 253.27449483 73 253.27449483 73 251 C27.13 251.33 -18.74 251.66 -66 252 C-70.62 261.9 -75.24 271.8 -80 282 C-87.31549266 290.12832518 -92.52811851 295.79849301 -103 298 C-104.61835485 298.08449436 -106.2397981 298.11779 -107.86035156 298.11352539 C-108.82104553 298.11344986 -109.7817395 298.11337433 -110.77154541 298.11329651 C-111.80084167 298.10813522 -112.83013794 298.10297394 -113.890625 298.09765625 C-114.95037537 298.0962413 -116.01012573 298.09482635 -117.10198975 298.09336853 C-120.48468862 298.08777382 -123.86732115 298.07522225 -127.25 298.0625 C-129.54426988 298.05748432 -131.83854079 298.05292153 -134.1328125 298.04882812 C-139.75523094 298.03780611 -145.37761073 298.02107321 -151 298 C-150.2506117 293.83834663 -148.98810716 290.69577496 -147.0078125 286.94140625 C-146.55529869 286.07603996 -146.55529869 286.07603996 -146.09364319 285.19319153 C-145.44610972 283.95629049 -144.7957806 282.72084968 -144.14291382 281.48675537 C-142.41497928 278.22028304 -140.70699656 274.943384 -138.99609375 271.66796875 C-138.65284561 271.01225891 -138.30959747 270.35654907 -137.95594788 269.68096924 C-134.95959357 263.94850223 -132.05770993 258.17162638 -129.1875 252.375 C-125.53353027 245.01171758 -121.76721892 237.7204058 -117.90893555 230.46240234 C-114.32909888 223.6958862 -110.90750032 216.85463425 -107.5 210 C-103.3719665 201.69603009 -99.16575778 193.44747281 -94.80859375 185.26171875 C-91.25973127 178.56338345 -87.87426274 171.78767007 -84.5 165 C-80.37196106 156.69603304 -76.16575779 148.44747282 -71.80859375 140.26171875 C-68.25973124 133.56338341 -64.874265 126.78766893 -61.5 120 C-57.76956813 112.4959162 -54.00210171 105.02153699 -50.0625 97.625 C-45.90493643 89.81756215 -41.93784956 81.91984129 -38 74 C-33.69061211 65.3329172 -29.31351557 56.71186678 -24.76220703 48.16894531 C-20.59716892 40.3150678 -16.66104962 32.34882104 -12.70410156 24.38867188 C-8.61333766 16.17773175 -4.39745867 8.05093642 0 0 Z M3 114 C-4.87513858 130.15429886 -12.67290341 146.33404296 -20.19482422 162.65649414 C-24.69697214 172.40556391 -29.34175522 182.08138901 -34.03955078 191.73730469 C-34.55888184 192.80754883 -35.07821289 193.87779297 -35.61328125 194.98046875 C-36.07516846 195.92817139 -36.53705566 196.87587402 -37.01293945 197.85229492 C-38.0695995 199.75749409 -38.0695995 199.75749409 -38 201 C-10.94 201 16.12 201 44 201 C43.17037538 196.85187691 42.33509718 194.2823964 40.515625 190.58984375 C39.9992749 189.5320874 39.4829248 188.47433105 38.95092773 187.38452148 C38.38962158 186.24700439 37.82831543 185.1094873 37.25 183.9375 C36.0551181 181.49127029 34.86524322 179.04261888 33.67578125 176.59375 C33.37023819 175.96572983 33.06469513 175.33770966 32.74989319 174.69065857 C29.56987074 168.14152163 26.49498745 161.54464448 23.4375 154.9375 C22.90761475 153.79490723 22.37772949 152.65231445 21.83178711 151.47509766 C19.34989605 146.11421296 16.88114933 140.74769446 14.43852234 135.36882019 C13.60088053 133.52507875 12.76085825 131.68244014 11.92016602 129.84008789 C10.86823007 127.53189922 9.82162363 125.22127237 8.78100586 122.90795898 C8.07923218 121.36990601 8.07923218 121.36990601 7.36328125 119.80078125 C6.95376221 118.89497314 6.54424316 117.98916504 6.12231445 117.0559082 C5.17059957 114.84747292 5.17059957 114.84747292 3 114 Z " fill="#FFFFFF" transform="translate(2326,1433)"/>
<path d="M0 0 C1.24500619 -0.00128164 1.24500619 -0.00128164 2.51516402 -0.00258917 C5.28809578 -0.00423239 8.06096666 0.00125842 10.83389282 0.00672913 C12.82490029 0.00701127 14.81590787 0.00685272 16.80691528 0.00628662 C22.20722332 0.00599972 27.60750915 0.01187913 33.00781202 0.01886058 C38.65325781 0.02511197 44.29870411 0.02569933 49.94415283 0.02688599 C60.63249686 0.02999403 71.32083065 0.03820033 82.00917017 0.04823548 C94.17836299 0.05941295 106.34755629 0.06491119 118.51675296 0.06993091 C143.54776489 0.08038337 168.57876773 0.09797264 193.60977173 0.12025452 C193.73466896 4.49434756 193.82470954 8.86745842 193.88442993 13.24281311 C193.9093601 14.7267213 193.94331798 16.21050946 193.98696899 17.69398499 C194.2717198 27.6301132 194.01974169 36.34857794 186.83511353 44.01356506 C180.21428604 50.16196234 173.3362748 52.25219345 164.4425354 52.23377991 C163.22164719 52.23370438 162.00075897 52.23362885 160.74287415 52.23355103 C159.43438004 52.22838974 158.12588593 52.22322845 156.77774048 52.21791077 C155.41725212 52.21604412 154.05676308 52.21462138 152.6962738 52.21362305 C149.12721885 52.20981727 145.55820503 52.20000366 141.98916626 52.18891907 C138.34252478 52.17866314 134.69587662 52.17411649 131.04922485 52.16908264 C123.90272372 52.15837955 116.75625042 52.14132655 109.60977173 52.12025452 C109.61253711 53.26124068 109.61530249 54.40222685 109.61815166 55.57778835 C109.6847617 83.3454125 109.73405444 111.11302628 109.76520824 138.88071346 C109.76826776 141.55439193 109.77139172 144.22807032 109.77456665 146.90174866 C109.77535358 147.56629496 109.77614051 148.23084126 109.77695129 148.91552532 C109.78999442 159.66653762 109.81364221 170.41750165 109.84123012 181.16848534 C109.86931479 192.20535748 109.88573 203.24220303 109.89203721 214.27910906 C109.89594683 220.47611859 109.90513033 226.67301874 109.9269619 232.86999321 C109.94735123 238.70495731 109.95360051 244.53976715 109.94909477 250.37476349 C109.94991887 252.51408031 109.95586982 254.65340239 109.96738815 256.79268837 C109.9823704 259.71932079 109.97870431 262.64537496 109.97053528 265.57202148 C109.9792738 266.41348738 109.98801233 267.25495328 109.99701566 268.12191814 C109.92806541 277.29562918 107.23101953 285.58444217 100.60977173 292.12025452 C84.99504452 302.87706659 74.36507842 298.12025452 51.60977173 298.12025452 C51.60977173 216.94025452 51.60977173 135.76025452 51.60977173 52.12025452 C23.55977173 52.12025452 -4.49022827 52.12025452 -33.39022827 52.12025452 C-33.39022827 16.95358785 -33.39022827 16.95358785 -25.01522827 7.18275452 C-17.84447212 0.57197065 -9.41392102 -0.03568179 0 0 Z " fill="#FFFFFF" transform="translate(2013.3902282714844,1432.8797454833984)"/>
<path d="M0 0 C43.26315789 0 43.26315789 0 51 7 C54.9715343 11.98175001 57.12656906 16.64431353 57.12304783 23.05295181 C57.12503888 23.8551302 57.12702993 24.65730858 57.12908131 25.4837954 C57.12471205 26.79702267 57.12471205 26.79702267 57.12025452 28.13677979 C57.12110894 29.07124742 57.12196337 30.00571506 57.12284368 30.9684999 C57.12449382 34.10694898 57.11898468 37.24534489 57.11352539 40.38378906 C57.11324339 42.63065591 57.1134015 44.87752285 57.1139679 47.12438965 C57.11425538 53.23140407 57.10836655 59.33839895 57.10139394 65.44540882 C57.09515225 71.82491266 57.09455595 78.20441692 57.09336853 84.58392334 C57.09061131 95.29390873 57.08436063 106.00388555 57.07543945 116.71386719 C57.06626022 127.74511682 57.05918188 138.7763645 57.05493164 149.80761719 C57.05466892 150.48760129 57.05440619 151.16758538 57.05413551 151.86817506 C57.05283047 155.27946076 57.05156676 158.69074647 57.05032361 162.10203218 C57.03995716 190.40135974 57.02226987 218.70067948 57 247 C57.69353325 246.99723462 58.3870665 246.99446924 59.10161591 246.99162006 C75.99509004 246.92529932 92.88852281 246.87568983 109.78209686 246.84456348 C117.95178408 246.82911002 126.12138427 246.80804967 134.29101562 246.77368164 C141.4136144 246.74373261 148.53615014 246.72441394 155.65881014 246.71773452 C159.42845752 246.71383155 163.19792458 246.70469099 166.96751404 246.68280983 C170.51992354 246.66235755 174.07207944 246.65618371 177.62454224 246.66067696 C179.54102828 246.65946579 181.45748709 246.64336954 183.37390137 246.6267395 C193.15322396 246.66164739 199.9201921 248.25559525 207.23828125 255.02734375 C217.96115205 267.03410595 214 282.39514248 214 298 C143.38 298 72.76 298 0 298 C0 199.66 0 101.32 0 0 Z " fill="#FFFFFF" transform="translate(2930,1433)"/>
<path d="M0 0 C4.3924818 -0.04988404 8.78480824 -0.08594581 13.17749023 -0.10986328 C14.6680794 -0.1198467 16.15864936 -0.13343822 17.64916992 -0.15087891 C41.29953929 -0.42044396 41.29953929 -0.42044396 50.50390625 8.44921875 C55.88868726 14.57340252 58.12672226 20.85840989 58.12304783 28.89439869 C58.12503888 29.85880432 58.12702993 30.82320995 58.12908131 31.81683999 C58.12471205 33.39417343 58.12471205 33.39417343 58.12025452 35.00337219 C58.12110894 36.12653766 58.12196337 37.24970313 58.12284368 38.40690392 C58.12449342 42.17794231 58.11898533 45.9489364 58.11352539 49.7199707 C58.11324338 52.4201823 58.11335746 55.12039116 58.1139679 57.82060242 C58.11449215 63.63785067 58.11135564 69.45508771 58.10573006 75.27233315 C58.09760172 83.68308442 58.09499847 92.09383027 58.09374207 100.50458505 C58.09155365 114.15060209 58.08489925 127.79661316 58.07543945 141.44262695 C58.06625991 154.6981605 58.05918172 167.95369243 58.05493164 181.20922852 C58.05466892 182.02635169 58.05440619 182.84347486 58.05413551 183.68535934 C58.05283047 187.78464168 58.05156676 191.88392403 58.05032361 195.98320639 C58.03995753 229.9888086 58.02234492 263.99440357 58 298 C52.87714766 298.0745935 47.75461696 298.12881017 42.63134766 298.16479492 C40.89138272 298.17980854 39.15145516 298.20022577 37.41162109 298.22631836 C34.8993198 298.26303107 32.3875222 298.27980069 29.875 298.29296875 C29.10696045 298.30845261 28.3389209 298.32393646 27.54760742 298.33988953 C19.15602065 298.34245852 12.91511421 295.62052853 6.76171875 289.90234375 C1.9398449 284.69557531 -0.12622783 279.21595828 -0.12304783 272.18179703 C-0.12503888 271.20893226 -0.12702993 270.23606749 -0.12908131 269.23372197 C-0.12616847 268.16758066 -0.12325563 267.10143935 -0.12025452 266.00299072 C-0.12110894 264.86842902 -0.12196337 263.73386732 -0.12284368 262.56492496 C-0.12449559 258.74932211 -0.11898178 254.93376288 -0.11352539 251.11816406 C-0.1126871 248.38854443 -0.11335735 245.65892567 -0.1139679 242.92930603 C-0.11449245 237.04546911 -0.11135273 231.16164327 -0.10573006 225.27780914 C-0.09760588 216.77075461 -0.09499889 208.26370543 -0.09374207 199.75664744 C-0.09155299 185.95478666 -0.08489682 172.15293179 -0.07543945 158.35107422 C-0.0662616 144.94319692 -0.05918259 131.53532122 -0.05493164 118.12744141 C-0.05466892 117.30109453 -0.05440619 116.47474764 -0.05413551 115.62335995 C-0.05283048 111.47785476 -0.05156677 107.33234956 -0.05032361 103.18684435 C-0.0399555 68.79122531 -0.0223411 34.39561329 0 0 Z " fill="#FFFFFF" transform="translate(2804,1433)"/>
<path d="M0 0 C11.05384952 9.41779589 16.21588532 20.30432176 17.37109375 34.62890625 C16.99043068 47.16540991 11.97107698 57.45668144 3.54296875 66.421875 C-5.54642898 74.953904 -16.61855793 78.40630018 -28.9609375 78.0390625 C-40.25371733 76.95862616 -51.20426438 72.20414875 -58.94140625 63.75390625 C-67.77935126 52.12889144 -70.17058903 41.09437197 -68.94140625 26.75390625 C-66.97347264 16.27063729 -61.35853247 6.92749555 -52.94140625 0.31640625 C-36.6837855 -10.70194219 -16.38457014 -11.99530915 0 0 Z " fill="#E87429" transform="translate(853.94140625,1864.24609375)"/>
<path d="M0 0 C4.95 0 9.9 0 15 0 C15.02284588 30.59106342 15.04052683 61.18212488 15.05106533 91.7731948 C15.05231593 95.39030045 15.05361027 99.00740609 15.05493164 102.62451172 C15.05519395 103.34456815 15.05545626 104.06462458 15.05572652 104.8065009 C15.0600698 116.44325977 15.06794995 128.08001366 15.0771528 139.71676959 C15.08652669 151.67010806 15.09206351 163.62344393 15.09408849 175.57678592 C15.09533372 182.28531773 15.09843725 188.99383759 15.10573006 195.70236588 C15.11254626 202.02402913 15.1146056 208.34567656 15.11310768 214.66734314 C15.1133815 216.98032085 15.11535326 219.29329913 15.11920547 221.60627365 C15.16850624 252.75039734 15.16850624 252.75039734 12.125 265.25 C11.94501465 266.01594482 11.7650293 266.78188965 11.57958984 267.57104492 C11.06775021 269.71799112 10.53818756 271.85952982 10 274 C9.7628125 274.96035156 9.525625 275.92070313 9.28125 276.91015625 C7.35454971 283.96325554 4.23118012 290.46143269 1 297 C0.4740625 298.06476563 -0.051875 299.12953125 -0.59375 300.2265625 C-12.24178669 322.80836948 -30.35924336 343.59806708 -54 354 C-55.52314584 339.10701842 -55.52314584 339.10701842 -52.125 334.40625 C-49.50806952 332.41084051 -46.8108049 330.70958545 -44 329 C-19.58052646 309.31414748 -4.42785046 278.96825009 -1 248 C-0.46425178 239.78121381 -0.56143197 231.53660491 -0.56762695 223.30444336 C-0.55859324 220.85861216 -0.54826211 218.41278547 -0.53674316 215.96696472 C-0.51498716 210.73596938 -0.5021015 205.50503553 -0.49761391 200.27400017 C-0.49111005 192.71114244 -0.4680993 185.14840287 -0.44127061 177.58559317 C-0.39816441 165.31057819 -0.3681058 153.03556823 -0.34643555 140.76049805 C-0.32537708 128.84803808 -0.29805989 116.9356191 -0.26245117 105.02319336 C-0.26025235 104.28688476 -0.25805352 103.55057615 -0.25578807 102.79195517 C-0.2447172 99.09750597 -0.23352462 95.40305715 -0.22227156 91.70860851 C-0.12931578 61.13910717 -0.05783254 30.56958917 0 0 Z " fill="#E87429" transform="translate(574,1414)"/>
<path d="M0 0 C1.14726562 0.51111328 2.29453125 1.02222656 3.4765625 1.54882812 C6.27849341 2.79802232 9.07784346 4.05266069 11.875 5.3125 C10.75524077 8.67177769 10.13897398 9.12164756 7.359375 11.10546875 C6.61308838 11.64558594 5.86680176 12.18570312 5.09790039 12.7421875 C3.8738147 13.61230469 3.8738147 13.61230469 2.625 14.5 C-3.79634499 19.12764233 -10.12493294 23.83890069 -16.36279297 28.71142578 C-32.50947488 41.27774379 -32.50947488 41.27774379 -41.125 44.3125 C-41.85468994 44.57377686 -42.58437988 44.83505371 -43.33618164 45.10424805 C-51.6438248 47.75341053 -59.70953557 47.65804406 -68.3125 47.5 C-69.75584527 47.48491277 -71.19920596 47.47123157 -72.64257812 47.45898438 C-76.13704537 47.42632868 -79.63092012 47.37477452 -83.125 47.3125 C-81.83687476 44.5814052 -80.42168863 42.22482752 -78.578125 39.8359375 C-78.06983154 39.17408447 -77.56153809 38.51223145 -77.0378418 37.83032227 C-76.489104 37.12319092 -75.94036621 36.41605957 -75.375 35.6875 C-74.80370361 34.9462085 -74.23240723 34.20491699 -73.64379883 33.44116211 C-71.80804346 31.06194131 -69.96696327 28.68691704 -68.125 26.3125 C-67.51382324 25.52278809 -66.90264648 24.73307617 -66.27294922 23.91943359 C-62.74039708 19.35534247 -59.19441256 14.80211445 -55.63769531 10.25683594 C-54.31633645 8.55843342 -53.01214593 6.84670192 -51.7109375 5.1328125 C-36.62912822 -14.49100884 -19.83325189 -8.93649431 0 0 Z " fill="#FFFFFF" transform="translate(2392.125,1368.6875)"/>
<path d="M0 0 C42.82608696 0 42.82608696 0 50 6.875 C53.52904793 12.38913739 54.78487399 17.46347128 54 24 C52.66019232 29.66278089 50.4391363 33.12998374 46 37 C45.34 37.66 44.68 38.32 44 39 C44.53109375 39.30292969 45.0621875 39.60585937 45.609375 39.91796875 C50.95723374 43.0896003 54.56540548 45.91562178 57.25 51.6875 C58.88761242 58.92028817 58.95409226 66.50299329 55 73 C49.5200477 79.24459681 43.11341924 81.64776346 35 83 C23.45 83 11.9 83 0 83 C0 55.61 0 28.22 0 0 Z M11 10 C11 18.25 11 26.5 11 35 C16.011875 35.0928125 16.011875 35.0928125 21.125 35.1875 C22.16672363 35.21481201 23.20844727 35.24212402 24.28173828 35.27026367 C30.93090527 35.32973401 35.221783 34.41266214 40.375 29.9375 C42.74467614 25.65385467 42.92099839 21.78604291 42 17 C39.44455667 13.59274223 36.90487226 11.60887821 33 10 C30.48730276 9.72655156 30.48730276 9.72655156 27.796875 9.8046875 C26.47187988 9.81218018 26.47187988 9.81218018 25.12011719 9.81982422 C24.00797852 9.83803223 22.89583984 9.85624023 21.75 9.875 C16.42875 9.936875 16.42875 9.936875 11 10 Z M11 45 C11 54.24 11 63.48 11 73 C14.135 73.04125 17.27 73.0825 20.5 73.125 C21.47130859 73.14320801 22.44261719 73.16141602 23.44335938 73.18017578 C32.16451878 73.23517089 38.60945611 72.23467697 45 66 C46.88286075 62.2342785 46.64207084 58.09090851 46 54 C43.94500127 50.09621349 41.50450561 47.71892515 37.53125 45.8203125 C32.38554967 44.62496176 27.3856813 44.79142669 22.125 44.875 C16.618125 44.936875 16.618125 44.936875 11 45 Z " fill="#E87429" transform="translate(1410,1780)"/>
<path d="M0 0 C11 0 11 0 14.49609375 3.33984375 C15.5142846 4.84759779 16.49314447 6.38243489 17.4375 7.9375 C18.53895926 9.60163084 19.64052419 11.26569174 20.7421875 12.9296875 C21.28456055 13.77885742 21.82693359 14.62802734 22.38574219 15.50292969 C24.82481512 19.27589369 27.44663631 22.91110089 30.0625 26.5625 C31.04831954 27.95991956 32.03269231 29.35836086 33.015625 30.7578125 C36.57870054 35.82472243 40.15398844 40.88298847 43.72875977 45.94165039 C47.50115277 51.28393362 51.24947736 56.64211052 55 62 C55.33 41.54 55.66 21.08 56 0 C59.63 0 63.26 0 67 0 C67 27.39 67 54.78 67 83 C55 83 55 83 51.87890625 80.1328125 C51.06498891 78.82191179 50.29469619 77.48323814 49.5625 76.125 C48.65832543 74.64246607 47.75063394 73.16207261 46.83984375 71.68359375 C46.3794873 70.90999512 45.91913086 70.13639648 45.44482422 69.33935547 C43.05268106 65.46616929 40.3311767 61.84471374 37.625 58.1875 C32.43469935 51.06946209 27.41752109 43.8450739 22.48876953 36.54370117 C21.98845215 35.80482666 21.48813477 35.06595215 20.97265625 34.3046875 C20.54218994 33.66515137 20.11172363 33.02561523 19.66821289 32.36669922 C17.1918956 28.85353958 14.57891405 25.43855206 12 22 C11.67 42.13 11.34 62.26 11 83 C7.37 83 3.74 83 0 83 C0 55.61 0 28.22 0 0 Z " fill="#E87429" transform="translate(1187,1780)"/>
<path d="M0 0 C8.6994154 6.49252606 13.83581294 15.16501828 16 25.79296875 C17.75454911 39.35084827 15.54860079 51.6602022 7.38671875 62.78125 C1.78210866 70.00975994 -6.66437286 74.88531258 -15.61328125 76.78125 C-25.94325689 77.68476458 -36.29196865 77.75158446 -45.61328125 72.78125 C-46.80824219 72.14509766 -46.80824219 72.14509766 -48.02734375 71.49609375 C-57.23720705 65.96709555 -63.22849372 57.18672063 -66.14379883 46.91137695 C-68.70261585 35.30155974 -67.25613026 21.81097974 -61.328125 11.55859375 C-55.32847514 2.88500523 -47.69205424 -3.13767432 -37.61328125 -6.21875 C-37.01386719 -6.41082031 -36.41445312 -6.60289063 -35.796875 -6.80078125 C-23.13929457 -9.2236097 -10.79377127 -6.91343592 0 0 Z M-48.42578125 13.59375 C-54.3183802 22.18010848 -56.93667952 31.08759564 -55.15234375 41.4609375 C-52.94691047 50.82754236 -48.3319232 57.15307358 -40.61328125 62.78125 C-33.39039613 66.90861293 -25.9900409 68.05086892 -17.8671875 66.1328125 C-9.00181065 63.25556121 -2.99125934 58.94192557 1.32421875 50.59375 C5.07325933 42.5237813 5.82737148 33.58300909 3.66796875 24.88671875 C2.72199841 22.4035466 1.65594522 20.11444849 0.38671875 17.78125 C0.04769531 17.13542969 -0.29132813 16.48960938 -0.640625 15.82421875 C-4.63117802 9.3058421 -11.66648644 5.37230901 -18.92578125 3.40625 C-30.80824267 1.39227349 -39.97712363 5.14509238 -48.42578125 13.59375 Z " fill="#E87429" transform="translate(1154.61328125,1786.21875)"/>
<path d="M0 0 C2.28274399 1.69205064 4.346648 3.46208392 6.40234375 5.421875 C7.24732422 6.20691406 7.24732422 6.20691406 8.109375 7.0078125 C16.72140892 15.94688568 18.73932731 28.11398085 18.6171875 40.04296875 C17.88393399 51.57504676 13.13650332 61.61255637 4.7890625 69.5625 C-6.68235855 78.49931902 -18.62423067 79.51929576 -32.59765625 78.421875 C-36.62385633 77.60732585 -39.98071829 76.35050803 -43.59765625 74.421875 C-44.79261719 73.78572266 -44.79261719 73.78572266 -46.01171875 73.13671875 C-55.28678191 67.56857883 -61.45872044 58.61873639 -64.1796875 48.19140625 C-66.10868835 35.40952214 -65.45789521 22.06248442 -57.91015625 11.171875 C-43.75298698 -5.85930608 -19.77221221 -12.01199058 0 0 Z M-45.390625 14.34765625 C-51.42512949 22.02116196 -54.67608892 30.55738789 -53.59765625 40.421875 C-51.75967968 50.13334579 -48.14338855 56.96828817 -40.59765625 63.421875 C-36.59120188 66.11192293 -32.43031851 67.95039576 -27.59765625 68.421875 C-26.96472656 68.48503906 -26.33179687 68.54820313 -25.6796875 68.61328125 C-17.36272304 69.06961027 -9.73601264 66.48548094 -3.22265625 61.296875 C2.17017436 56.18088375 6.1403644 48.62362079 6.60546875 41.1640625 C6.7401236 30.05503748 5.6923299 22.20405829 -1.578125 13.43359375 C-7.43323242 7.60113665 -14.92685081 5.00349607 -23.03515625 4.171875 C-32.01183935 5.04764896 -39.1003467 7.59143141 -45.390625 14.34765625 Z " fill="#E87429" transform="translate(2466.59765625,1784.578125)"/>
<path d="M0 0 C1.57644301 1.23236914 3.14449377 2.4760149 4.6875 3.75 C3.00597927 7.49020498 0.99710527 9.31134348 -2.3125 11.75 C-6.00129299 9.94752161 -9.53900083 7.9223788 -13.09375 5.87109375 C-20.27314186 2.2434785 -30.71882104 2.44337958 -38.375 4.62109375 C-45.66916771 8.01243697 -50.18516725 12.96224309 -53.6875 20.125 C-56.7591179 28.5525903 -57.0630832 39.7532249 -53.5 48.0625 C-52.00721198 50.81432988 -50.2696406 53.30357425 -48.3125 55.75 C-48.3125 56.41 -48.3125 57.07 -48.3125 57.75 C-47.44625 58.18119141 -47.44625 58.18119141 -46.5625 58.62109375 C-45.14157497 59.33402315 -43.72434749 60.05441488 -42.3125 60.78515625 C-41.3225 61.29369141 -41.3225 61.29369141 -40.3125 61.8125 C-39.3225 62.32490234 -39.3225 62.32490234 -38.3125 62.84765625 C-30.72823281 66.2694643 -21.92508691 65.62047657 -14.25 62.875 C-11.28393195 61.69902588 -8.98463377 60.53142251 -6.3125 58.75 C-5.92628774 55.96101681 -5.71018076 53.42080331 -5.625 50.625 C-5.521875 48.02625 -5.41875 45.4275 -5.3125 42.75 C-13.2325 42.75 -21.1525 42.75 -29.3125 42.75 C-29.3125 39.12 -29.3125 35.49 -29.3125 31.75 C-17.7625 31.75 -6.2125 31.75 5.6875 31.75 C5.873125 37.23625 6.05875 42.7225 6.25 48.375 C6.37290405 50.95562256 6.37290405 50.95562256 6.49829102 53.58837891 C6.79950194 64.33434905 6.79950194 64.33434905 3.84838867 68.09130859 C1.51107586 69.69061275 -0.66516778 70.75928566 -3.3125 71.75 C-4.30894531 72.23210937 -5.30539063 72.71421875 -6.33203125 73.2109375 C-18.23755341 77.10729021 -33.3166544 78.24960123 -44.99609375 73.00390625 C-45.76050781 72.59011719 -46.52492188 72.17632813 -47.3125 71.75 C-48.50552734 71.11384766 -48.50552734 71.11384766 -49.72265625 70.46484375 C-58.8876237 64.97198346 -64.20388611 56.84463864 -67.3125 46.75 C-70.44961362 34.13880324 -68.73923242 20.11040795 -62.1875 8.9375 C-56.34490056 0.41908821 -48.04416745 -5.29078495 -38.015625 -7.83203125 C-24.24859032 -9.96074904 -11.44524957 -8.23357239 0 0 Z " fill="#E87429" transform="translate(2116.3125,1787.25)"/>
<path d="M0 0 C45 0 45 0 57.265625 11.0390625 C67.01925949 21.26231643 68.49012834 32.63667372 68.2734375 46.1484375 C67.87420895 56.35841118 64.25556733 64.78597218 57 72 C40.03022573 86.41306987 22.526902 83 0 83 C0 55.61 0 28.22 0 0 Z M11 10 C11 30.79 11 51.58 11 73 C31.6546139 73.42417006 31.6546139 73.42417006 48.75 63.8125 C55.37969265 56.77412767 57.36077822 48.10018365 57.20703125 38.6796875 C56.5301863 29.91901514 53.16453445 23.22605675 47 17 C36.11180774 8.22955043 25.30804252 10 11 10 Z " fill="#E87429" transform="translate(1610,1780)"/>
<path d="M0 0 C44.85526316 0 44.85526316 0 57.0078125 10.78125 C66.54164909 20.85162285 68.41889217 32.4465555 68.2109375 45.765625 C67.85979421 55.60630726 64.0033642 65.07201605 56.92578125 72.04296875 C40.21002243 85.72480276 21.44639737 83 0 83 C0 55.61 0 28.22 0 0 Z M11 10 C11 30.79 11 51.58 11 73 C31.17875315 73.39261316 31.17875315 73.39261316 47.9765625 64.3515625 C54.1474094 58.12819776 56.70059396 50.27932274 57.19140625 41.625 C56.84683549 32.77057549 54.32106598 25.81922588 48.5 19.125 C47.675 18.42375 46.85 17.7225 46 17 C45.2575 16.29875 44.515 15.5975 43.75 14.875 C33.31553096 7.76058929 23.71245181 10 11 10 Z " fill="#E87429" transform="translate(1768,1780)"/>
<path d="M0 0 C3.96 0 7.92 0 12 0 C12.66249756 1.75413208 12.66249756 1.75413208 13.33837891 3.54370117 C14.67089234 7.07181039 16.00351389 10.59987876 17.33618164 14.12792969 C18.86946412 18.18708309 20.40246247 22.24634365 21.93530273 26.30566406 C25.69855325 36.27024862 29.46570294 46.23331052 33.24609375 56.19140625 C33.8983025 57.91055262 34.55048423 59.62970924 35.20263672 61.34887695 C36.12941642 63.7919888 37.05674862 66.23488291 37.98590088 68.67709351 C38.83708002 70.91439844 39.68631947 73.15243054 40.53515625 75.390625 C40.78744492 76.05199966 41.03973358 76.71337433 41.29966736 77.39479065 C43 81.88624608 43 81.88624608 43 83 C39.04 83 35.08 83 31 83 C29.82923771 80.04322789 28.66323329 77.08473257 27.5 74.125 C27.16613281 73.28324219 26.83226562 72.44148438 26.48828125 71.57421875 C26.17246094 70.76855469 25.85664062 69.96289062 25.53125 69.1328125 C25.23798828 68.38918457 24.94472656 67.64555664 24.64257812 66.87939453 C24 65 24 65 24 63 C12.12 63.33 0.24 63.66 -12 64 C-14.31 70.27 -16.62 76.54 -19 83 C-22.96 83 -26.92 83 -31 83 C-29.03955017 76.24403462 -26.84850923 69.66380867 -24.33984375 63.09375 C-23.99337296 62.17821854 -23.64690216 61.26268707 -23.28993225 60.31941223 C-22.17585965 57.37830351 -21.05684033 54.43910746 -19.9375 51.5 C-19.16969722 49.47689188 -18.40212008 47.45369813 -17.63476562 45.43041992 C-15.42877933 39.6181401 -13.21586331 33.80852063 -11 28 C-10.69894348 27.21063049 -10.39788696 26.42126099 -10.08770752 25.60797119 C-7.63089388 19.16843995 -5.16713741 12.73156227 -2.6875 6.30078125 C-2.38199219 5.50841064 -2.07648438 4.71604004 -1.76171875 3.8996582 C-1 2 -1 2 0 0 Z M5 15 C3.1445353 20.08886246 1.29322861 25.17921046 -0.55419922 30.27099609 C-1.18358423 32.00383567 -1.81411416 33.73625984 -2.44580078 35.46826172 C-3.3522821 37.95432587 -4.25466866 40.44184284 -5.15625 42.9296875 C-5.5827887 44.09538773 -5.5827887 44.09538773 -6.01794434 45.28463745 C-7.47817136 49.04542885 -7.47817136 49.04542885 -8 53 C1.24 53 10.48 53 20 53 C17.55058322 44.83527739 14.88434138 36.92013726 11.9375 28.9375 C11.49083984 27.70322266 11.04417969 26.46894531 10.58398438 25.19726562 C10.15279297 24.02744141 9.72160156 22.85761719 9.27734375 21.65234375 C8.69327759 20.05894165 8.69327759 20.05894165 8.09741211 18.43334961 C7.24471224 15.85923531 7.24471224 15.85923531 5 15 Z " fill="#E87429" transform="translate(1355,1780)"/>
<path d="M0 0 C3.96 0 7.92 0 12 0 C15.56516632 8.44143765 18.92941117 16.93341337 22.16015625 25.5078125 C22.63647083 26.76715615 23.11299203 28.02642166 23.58970642 29.28561401 C24.83101352 32.56566455 26.0701103 35.84654494 27.30853271 39.12768555 C29.29247526 44.38329438 31.27930389 49.63781119 33.26717949 54.89193344 C33.95264328 56.70488124 34.63675014 58.51834191 35.32081604 60.33181763 C37.5601821 66.25596431 39.84348764 72.14784674 42.30174255 77.9850769 C43 80 43 80 43 83 C39.04 83 35.08 83 31 83 C28.69 76.73 26.38 70.46 24 64 C12.12 63.67 0.24 63.34 -12 63 C-12.99 66.63 -13.98 70.26 -15 74 C-16.27560189 77.02499877 -17.59043545 80.03505387 -19 83 C-22.63 83 -26.26 83 -30 83 C-28.67190324 76.28394036 -26.71720751 70.15424516 -24.21875 63.7890625 C-23.84857758 62.83027695 -23.47840515 61.87149139 -23.09701538 60.88365173 C-21.90357017 57.7952493 -20.70172058 54.71019052 -19.5 51.625 C-17.86442111 47.39820253 -16.23317605 43.16973569 -14.6015625 38.94140625 C-14.00192184 37.39020332 -14.00192184 37.39020332 -13.39016724 35.80766296 C-8.79871495 23.91856681 -4.37484654 11.97037155 0 0 Z M6 15 C2.44817458 23.3032243 -0.7820585 31.681086 -3.8125 40.1875 C-4.21919922 41.31736328 -4.62589844 42.44722656 -5.04492188 43.61132812 C-7.03148304 48.19540545 -7.03148304 48.19540545 -8 53 C1.24 53 10.48 53 20 53 C18.68985187 47.1043334 17.51863424 42.2750632 15.3984375 36.77734375 C15.1571109 36.14639297 14.9157843 35.5154422 14.66714478 34.8653717 C13.90896753 32.88709656 13.14218393 30.91229722 12.375 28.9375 C11.85358826 27.58160249 11.33275032 26.22548419 10.8125 24.86914062 C9.54826968 21.57685598 8.27630808 18.28762434 7 15 C6.67 15 6.34 15 6 15 Z " fill="#E87429" transform="translate(1713,1780)"/>
<path d="M0 0 C1.51400391 0.01740234 1.51400391 0.01740234 3.05859375 0.03515625 C4.07050781 0.04417969 5.08242187 0.05320312 6.125 0.0625 C6.90746094 0.07410156 7.68992187 0.08570313 8.49609375 0.09765625 C12.59800055 8.94752017 16.01396717 18.05411672 19.49609375 27.16015625 C20.15827827 28.88834874 20.8204691 30.61653882 21.48266602 32.34472656 C23.16467197 36.73833509 24.84210996 41.13367101 26.51739502 45.52984619 C27.46627588 48.01942315 28.41642946 50.50851151 29.36669922 52.99755859 C30.79755884 56.74812758 32.22232565 60.5009538 33.6418457 64.25582886 C34.16759622 65.64488101 34.69492801 67.03333574 35.22387695 68.4211731 C35.95356763 70.33754096 36.67619147 72.25659524 37.3984375 74.17578125 C37.80570068 75.2524707 38.21296387 76.32916016 38.63256836 77.43847656 C39.49609375 80.09765625 39.49609375 80.09765625 39.49609375 83.09765625 C35.86609375 83.09765625 32.23609375 83.09765625 28.49609375 83.09765625 C27.70397446 81.20201199 26.91241799 79.30613254 26.12109375 77.41015625 C25.68023438 76.35441406 25.239375 75.29867188 24.78515625 74.2109375 C24.35976562 73.18355469 23.934375 72.15617187 23.49609375 71.09765625 C23.11195313 70.20433594 22.7278125 69.31101562 22.33203125 68.390625 C21.49609375 66.09765625 21.49609375 66.09765625 21.49609375 63.09765625 C9.61609375 63.42765625 -2.26390625 63.75765625 -14.50390625 64.09765625 C-16.81390625 70.36765625 -19.12390625 76.63765625 -21.50390625 83.09765625 C-25.46390625 83.09765625 -29.42390625 83.09765625 -33.50390625 83.09765625 C-32.71242332 79.14024159 -31.78900795 75.9165114 -30.37426758 72.18432617 C-29.93323196 71.01508102 -29.49219635 69.84583588 -29.03779602 68.64115906 C-28.55391464 67.3701205 -28.06995984 66.09910989 -27.5859375 64.828125 C-27.08572927 63.50609688 -26.58587282 62.18393562 -26.08634949 60.86164856 C-24.76866115 57.37635485 -23.44636733 53.89282646 -22.12304688 50.40966797 C-20.7987994 46.92189512 -19.47858492 43.43259711 -18.15820312 39.94335938 C-16.6346427 35.91755303 -15.11055641 31.8919519 -13.58303833 27.86764526 C-11.52906903 22.45541816 -9.47719342 17.04268681 -7.46240234 11.61572266 C-7.17805832 10.85036697 -6.89371429 10.08501129 -6.60075378 9.29646301 C-5.89750933 7.39822381 -5.19794241 5.4986232 -4.4987793 3.59887695 C-3.11564113 0.12151486 -3.11564113 0.12151486 0 0 Z M2.49609375 14.09765625 C0.63857075 19.1674628 -1.21267137 24.23950121 -3.05810547 29.3137207 C-3.68691232 31.03993671 -4.3174373 32.76552786 -4.94970703 34.49047852 C-5.8577081 36.96859445 -6.75952636 39.44888467 -7.66015625 41.9296875 C-8.08669495 43.0876458 -8.08669495 43.0876458 -8.52185059 44.26899719 C-9.62987022 47.33639461 -10.50390625 49.80971744 -10.50390625 53.09765625 C-1.26390625 53.09765625 7.97609375 53.09765625 17.49609375 53.09765625 C12.96038944 40.04593567 8.31550775 27.04708474 3.49609375 14.09765625 C3.16609375 14.09765625 2.83609375 14.09765625 2.49609375 14.09765625 Z " fill="#E87429" transform="translate(2357.50390625,1779.90234375)"/>
<path d="M0 0 C16.83 0 33.66 0 51 0 C51 3.3 51 6.6 51 10 C37.8 10 24.6 10 11 10 C11 18.58 11 27.16 11 36 C21.89 36 32.78 36 44 36 C44 39.3 44 42.6 44 46 C33.11 46 22.22 46 11 46 C11 54.91 11 63.82 11 73 C25.19 73 39.38 73 54 73 C54 76.3 54 79.6 54 83 C36.18 83 18.36 83 0 83 C0 55.61 0 28.22 0 0 Z " fill="#E87429" transform="translate(2139,1780)"/>
<path d="M0 0 C16.83 0 33.66 0 51 0 C51 3.3 51 6.6 51 10 C37.8 10 24.6 10 11 10 C11 18.58 11 27.16 11 36 C21.89 36 32.78 36 44 36 C44 39.3 44 42.6 44 46 C33.11 46 22.22 46 11 46 C11 54.91 11 63.82 11 73 C25.19 73 39.38 73 54 73 C54 76.3 54 79.6 54 83 C36.18 83 18.36 83 0 83 C0 55.61 0 28.22 0 0 Z " fill="#E87429" transform="translate(1852,1780)"/>
<path d="M0 0 C16.83 0 33.66 0 51 0 C51 3.3 51 6.6 51 10 C37.8 10 24.6 10 11 10 C11 18.58 11 27.16 11 36 C21.89 36 32.78 36 44 36 C44 39.3 44 42.6 44 46 C33.11 46 22.22 46 11 46 C11 54.91 11 63.82 11 73 C24.86 73 38.72 73 53 73 C53 76.3 53 79.6 53 83 C35.51 83 18.02 83 0 83 C0 55.61 0 28.22 0 0 Z " fill="#E87429" transform="translate(1952,1780)"/>
<path d="M0 0 C2.55739729 2.00389246 4.76124349 4.12762895 6.94921875 6.52734375 C5.45824217 10.32255685 3.19221026 12.13777106 -0.05078125 14.52734375 C-2.93966527 13.21192597 -5.05383305 11.7559849 -7.36328125 9.58984375 C-14.48164464 3.48625753 -20.17035239 3.02659962 -29.453125 3.24609375 C-36.27921374 3.77972935 -41.36374462 6.01646714 -46.4453125 10.64453125 C-54.15931773 19.69112619 -54.77931146 30.22645256 -54.05078125 41.52734375 C-52.9696157 49.10631429 -48.77439738 54.58602117 -43.05078125 59.52734375 C-34.85645943 64.4036369 -26.37741523 65.81329451 -17.11328125 63.46484375 C-11.56852221 61.67953434 -7.25987379 58.50632645 -3.05078125 54.52734375 C-2.55578125 53.53734375 -2.55578125 53.53734375 -2.05078125 52.52734375 C1.38517041 54.05443338 4.06834329 56.1266142 6.94921875 58.52734375 C4.7481731 65.2457187 -0.41860916 68.60136715 -6.50390625 71.828125 C-16.98825386 76.60162764 -30.08609908 77.67727401 -41.11328125 73.90234375 C-53.2668041 68.5898376 -60.10816001 61.71289314 -65.0703125 49.4921875 C-69.24577968 36.86597398 -67.70696353 23.22149501 -62.23828125 11.27734375 C-57.11168801 1.86898911 -49.47283488 -3.72801066 -39.42578125 -7.34765625 C-25.24921418 -11.07598176 -11.87376083 -8.37771635 0 0 Z " fill="#E87429" transform="translate(1071.05078125,1787.47265625)"/>
<path d="M0 0 C1.61552985 1.13865658 3.16560093 2.36951155 4.6953125 3.62109375 C3.91147683 7.48251579 2.26720818 9.63437619 -0.3046875 12.62109375 C-3.56153232 11.9667505 -6.04120775 10.73939511 -8.9296875 9.12109375 C-14.5557623 6.27077014 -20.09455493 4.64769844 -26.3828125 6.1015625 C-30.02624531 7.48698548 -32.63200572 9.07894409 -34.3046875 12.62109375 C-34.92564825 16.89019893 -34.90733487 18.81128635 -32.3046875 22.30859375 C-25.48080582 27.56866922 -17.15700662 30.40986557 -9.1953125 33.53320312 C-2.23929293 36.36817251 3.27709728 39.60475725 6.6953125 46.62109375 C8.86033642 53.933727 8.1171784 60.85175035 4.6953125 67.62109375 C1.39425197 73.08054001 -4.1437748 76.16706052 -10.08203125 78.2421875 C-21.47195773 80.18387971 -33.19096683 79.36005604 -42.9375 72.8671875 C-48.93188323 68.36670228 -48.93188323 68.36670228 -50.3046875 65.62109375 C-48.3246875 62.98109375 -46.3446875 60.34109375 -44.3046875 57.62109375 C-41.23046709 59.15820396 -38.71264548 60.66814078 -35.9296875 62.62109375 C-29.25683821 67.06965994 -23.30972756 68.64327579 -15.3046875 67.62109375 C-10.79100586 66.09903831 -7.97048218 64.61978578 -5.3046875 60.62109375 C-4.89013519 56.33738654 -4.73149207 53.79477964 -6.6171875 49.93359375 C-11.20432845 45.98651898 -16.71013004 44.09704625 -22.265625 41.81591797 C-40.17508475 34.41981796 -40.17508475 34.41981796 -45.1796875 26.74609375 C-47.59780184 20.02910947 -47.95418138 14.25148546 -45.3046875 7.62109375 C-42.23054484 1.42135834 -37.55853929 -1.67151424 -31.3046875 -4.37890625 C-21.03973814 -7.68814044 -9.09557121 -5.4419265 0 0 Z " fill="#E87429" transform="translate(2252.3046875,1784.37890625)"/>
<path d="M0 0 C20.13 0 40.26 0 61 0 C61 3.3 61 6.6 61 10 C52.75 10 44.5 10 36 10 C36 34.09 36 58.18 36 83 C32.37 83 28.74 83 25 83 C25 58.91 25 34.82 25 10 C16.75 10 8.5 10 0 10 C0 6.7 0 3.4 0 0 Z " fill="#E87429" transform="translate(2266,1780)"/>
<path d="M0 0 C19.8 0 39.6 0 60 0 C60 3.3 60 6.6 60 10 C51.75 10 43.5 10 35 10 C35 34.09 35 58.18 35 83 C31.37 83 27.74 83 24 83 C24 58.91 24 34.82 24 10 C16.08 10 8.16 10 0 10 C0 6.7 0 3.4 0 0 Z " fill="#E87429" transform="translate(1267,1780)"/>
<path d="M0 0 C3.63 0 7.26 0 11 0 C11 24.09 11 48.18 11 73 C24.53 73 38.06 73 52 73 C52 76.3 52 79.6 52 83 C34.84 83 17.68 83 0 83 C0 55.61 0 28.22 0 0 Z " fill="#E87429" transform="translate(1514,1780)"/>
<path d="M0 0 C4.764375 -0.061875 9.52875 -0.12375 14.4375 -0.1875 C15.9217749 -0.21481201 17.4060498 -0.24212402 18.93530273 -0.27026367 C27.55254388 -0.32426296 34.45024597 0.2305845 41.875 4.75 C45.62373393 8.71924769 46.8406773 12.56609573 47.4375 17.9375 C47.23216347 22.53525272 45.690266 26.28644264 43 30 C39.8401509 32.5015472 36.58930381 34.22081923 33 36 C33.72703125 36.93851807 33.72703125 36.93851807 34.46875 37.89599609 C36.65081609 40.71851957 38.8254823 43.54665772 41 46.375 C42.1446875 47.85226562 42.1446875 47.85226562 43.3125 49.359375 C44.034375 50.30039063 44.75625 51.24140625 45.5 52.2109375 C46.1703125 53.08024902 46.840625 53.94956055 47.53125 54.84521484 C49 57 49 57 49 59 C45.84843103 59.56712038 43.14020112 59.69340413 40 59 C36.93405663 56.52039033 34.8505728 53.48178945 32.625 50.25 C31.72201172 49.0125 31.72201172 49.0125 30.80078125 47.75 C29.68171758 46.21159761 28.57430339 44.66460006 27.48291016 43.10644531 C26.9935498 42.41131836 26.50418945 41.71619141 26 41 C25.5160376 40.26330078 25.0320752 39.52660156 24.53344727 38.76757812 C22.98845749 36.60908276 22.98845749 36.60908276 19.42578125 36.390625 C18.05565951 36.3208987 16.68409546 36.27865715 15.3125 36.25 C12.899375 36.1675 10.48625 36.085 8 36 C8 43.59 8 51.18 8 59 C5.36 59 2.72 59 0 59 C0 39.53 0 20.06 0 0 Z M8 7 C8 14.59 8 22.18 8 30 C23.78854881 31.10328275 23.78854881 31.10328275 37.5625 24.75 C39.42063851 21.19530024 39.49569182 18.96553454 39 15 C37.55842654 11.03567298 36.38166691 10.17922872 32.53125 8.37109375 C27.52134558 6.58750436 22.75934396 6.66461367 17.5 6.8125 C14.365 6.874375 11.23 6.93625 8 7 Z " fill="#FFFFFF" transform="translate(1068,1904)"/>
<path d="M0 0 C6.4181269 5.24883252 10.74396643 12.10316841 11.75 20.375 C12.67898221 29.66482209 10.50081562 38.27437397 4.546875 45.5546875 C-2.04599263 52.23354905 -8.87355703 54.94141589 -18.125 55.6875 C-27.20098447 55.41950833 -35.11867284 51.83339821 -41.375 45.3125 C-46.56913447 38.91551333 -48.96896395 31.04165333 -48.56640625 22.84765625 C-47.40669165 13.7847014 -44.24180726 6.53483939 -37.140625 0.6171875 C-25.76515927 -7.50254149 -11.66283633 -8.01263565 0 0 Z M-34.6875 8.6875 C-39.59569041 15.25029284 -41.1643161 21.29854113 -40.25 29.375 C-38.68307009 36.63510859 -34.57968426 42.1552105 -28.4375 46.25 C-21.74778973 48.61107421 -16.07414247 49.05178083 -9.38671875 46.4375 C-2.75919566 43.14191265 0.66450823 38.94110135 3.09375 31.95703125 C4.86893933 24.97250658 4.1056859 18.74945555 0.75 12.375 C-3.01223566 6.94065961 -7.18083425 3.43681935 -13.5703125 1.76953125 C-21.68406394 0.4850659 -29.06030738 2.53232388 -34.6875 8.6875 Z " fill="#FFFFFF" transform="translate(1742.25,1908.625)"/>
<path d="M0 0 C0.474375 0.433125 0.94875 0.86625 1.4375 1.3125 C1.1875 3.6875 1.1875 3.6875 0.4375 6.3125 C-1.625 7.625 -1.625 7.625 -3.5625 8.3125 C-4.366875 7.673125 -5.17125 7.03375 -6 6.375 C-9.96044792 3.75342691 -13.85592467 3.1262686 -18.5625 3.3125 C-23.6809415 4.78897351 -26.0088062 7.58169146 -28.59375 12.0390625 C-30.15747185 15.70876458 -30.46174185 19.35545255 -30.5625 23.3125 C-29.799375 22.673125 -29.03625 22.03375 -28.25 21.375 C-22.71591973 17.12791514 -16.25884578 17.74259823 -9.5625 18.3125 C-4.23175222 19.84989434 -0.46133103 22.51827945 2.4375 27.3125 C4.6623376 32.82162167 4.86654503 37.60675086 3.4375 43.3125 C0.38667867 49.18815589 -3.78271984 53.25112939 -10 55.625 C-17.08116175 56.99153999 -23.09277255 56.53593311 -29.5625 53.3125 C-34.98108475 49.35839761 -37.88808994 44.83728448 -39.5625 38.3125 C-39.98658503 34.84280755 -40.03931069 31.43017595 -40 27.9375 C-39.99315186 27.0079248 -39.98630371 26.07834961 -39.97924805 25.12060547 C-39.82399649 18.50700532 -39.0926076 13.03450447 -35.5625 7.3125 C-35.18867187 6.6525 -34.81484375 5.9925 -34.4296875 5.3125 C-31.13011558 0.06814728 -27.03682313 -2.64520306 -21.0625 -4.4375 C-13.29202171 -5.21454783 -6.60296424 -4.34829353 0 0 Z M-29.0625 29.4375 C-31.16888056 33.4747294 -31.47313588 36.8535243 -30.5625 41.3125 C-28.82562147 44.67236338 -26.47138414 46.78630392 -23.1875 48.6875 C-18.31158852 49.8484313 -14.32453093 49.97207262 -9.8125 47.6875 C-6.35048981 45.45746641 -4.79413433 43.31531158 -3.5625 39.3125 C-3.28448821 34.89037496 -4.02295974 32.08808912 -6.5625 28.4375 C-14.27702414 22.9730454 -21.90068233 23.34995498 -29.0625 29.4375 Z " fill="#FFFFFF" transform="translate(1836.5625,1907.6875)"/>
<path d="M0 0 C7.06313253 4.61820204 10.61756699 11.19315951 12.375 19.3125 C13.97788156 30.34772305 12.24204405 40.49553245 6.125 49.875 C0.73728901 55.26271099 -4.79917761 57.5244352 -12.3125 58.375 C-19.37024586 57.65726313 -25.08122292 55.47498985 -29.9375 50.1875 C-36.82117782 41.47357373 -37.85064112 31.83959826 -37 21 C-35.40196327 13.02906979 -32.48778736 6.13102574 -26 1 C-17.17489052 -3.99427418 -9.17747497 -4.14412489 0 0 Z M-24.8984375 11.2890625 C-29.48215553 18.40845434 -29.92184297 25.72367358 -29 34 C-27.07986604 40.70569862 -23.85119563 46.38611568 -17.6875 49.875 C-12.29575876 51.519938 -8.91209722 50.91780667 -3.875 48.5 C1.84159237 43.52905011 4.38389823 37.35301535 5.23828125 29.9296875 C5.51748423 22.20017335 3.44788608 15.09206663 -1.375 9 C-4.91072255 6.30611616 -8.05271843 4.29209224 -12.5 3.625 C-17.90445099 4.43566765 -21.60946553 6.93913183 -24.8984375 11.2890625 Z " fill="#FFFFFF" transform="translate(1457,1906)"/>
<path d="M0 0 C6.52638397 5.21868551 9.54623895 11.37284854 10.85546875 19.55859375 C11.60114652 30.49998107 10.68524566 40.07424888 3.6015625 48.80078125 C-1.25481837 53.68975528 -6.49865359 56.27264256 -13.33203125 56.80859375 C-20.10304346 56.36459295 -26.32094419 54.51616934 -31.14453125 49.55859375 C-38.7069212 39.26227856 -39.19159499 28.94519338 -38.14453125 16.55859375 C-36.65330511 8.86650956 -32.420153 3.18215253 -26.14453125 -1.44140625 C-17.26828618 -5.97103647 -8.24209758 -5.5397705 0 0 Z M-25.6875 8.328125 C-30.49064146 15.46945263 -32.25531386 23.4088973 -30.71484375 31.9375 C-28.87412793 39.37990039 -25.21781256 44.94751598 -18.70703125 49.12109375 C-14.12104079 49.90406773 -10.29244508 49.73690275 -6.21484375 47.5 C-1.06274796 43.59723216 1.40711732 38.78907594 2.85546875 32.55859375 C3.83516101 24.32715876 3.24644019 16.73439958 -1.14453125 9.55859375 C-4.15851727 5.81972501 -7.32470747 3.3962742 -12.08203125 2.43359375 C-17.57079581 2.16766523 -22.08427533 4.19581923 -25.6875 8.328125 Z " fill="#FFFFFF" transform="translate(1400.14453125,1907.44140625)"/>
<path d="M0 0 C6.52638397 5.21868551 9.54623895 11.37284854 10.85546875 19.55859375 C11.60114652 30.49998107 10.68524566 40.07424888 3.6015625 48.80078125 C-1.25481837 53.68975528 -6.49865359 56.27264256 -13.33203125 56.80859375 C-20.10304346 56.36459295 -26.32094419 54.51616934 -31.14453125 49.55859375 C-39.00381129 38.85805795 -39.41713385 27.55959031 -37.78515625 14.734375 C-36.02260567 8.10099208 -31.26505338 2.93372342 -26.14453125 -1.44140625 C-17.48907639 -6.23075794 -8.08867089 -5.43664765 0 0 Z M-25.6875 8.328125 C-30.49064146 15.46945263 -32.25531386 23.4088973 -30.71484375 31.9375 C-28.87412793 39.37990039 -25.21781256 44.94751598 -18.70703125 49.12109375 C-14.12104079 49.90406773 -10.29244508 49.73690275 -6.21484375 47.5 C-1.06274796 43.59723216 1.40711732 38.78907594 2.85546875 32.55859375 C3.83516101 24.32715876 3.24644019 16.73439958 -1.14453125 9.55859375 C-4.15851727 5.81972501 -7.32470747 3.3962742 -12.08203125 2.43359375 C-17.57079581 2.16766523 -22.08427533 4.19581923 -25.6875 8.328125 Z " fill="#FFFFFF" transform="translate(1546.14453125,1907.44140625)"/>
<path d="M0 0 C-1.35937085 2.8605891 -2.64520469 4.85927699 -5 7 C-6.2684375 6.071875 -6.2684375 6.071875 -7.5625 5.125 C-13.06485079 1.5124753 -18.43569758 0.43840871 -24.90625 1.40234375 C-28.44703335 2.41305243 -30.01587836 3.95768015 -32 7 C-32.57869359 10.61658971 -32.57869359 10.61658971 -31 14 C-26.29043125 17.23205698 -21.48605229 18.45255351 -16 19.9375 C-3.38016013 23.39035318 -3.38016013 23.39035318 0.1796875 28.7890625 C2.28129424 34.45339306 1.84302648 41.03293822 -0.5 46.5 C-5.02350714 51.02350714 -10.28247866 53.52391777 -16.73828125 54.03125 C-25.2023318 53.91430284 -33.18914671 52.23466856 -40 47 C-41.74609375 44.8359375 -41.74609375 44.8359375 -43 43 C-41.68 41.68 -40.36 40.36 -39 39 C-36.6689133 39.87415751 -34.41222031 40.76875446 -32.23828125 41.98828125 C-26.47708604 45.20192969 -20.48228685 47.00706997 -13.87890625 45.5234375 C-11.22224484 44.51821426 -9.3158621 43.3816667 -7.5 41.1875 C-6.79638157 38.10916936 -7.10043799 36.01995819 -8 33 C-10.67373379 30.59146642 -13.05912067 29.49015284 -16.51953125 28.60546875 C-17.80633789 28.25452148 -17.80633789 28.25452148 -19.11914062 27.89648438 C-20.90088761 27.42746758 -22.68474636 26.9663942 -24.47070312 26.51367188 C-30.48100021 24.85488382 -34.76408078 22.6525937 -39 18 C-41.09428889 13.81142223 -40.41793012 8.56140874 -40 4 C-37.55399189 -1.47905816 -34.26689623 -3.548169 -29 -6 C-18.40629916 -9.12995707 -9.13800348 -5.21488157 0 0 Z " fill="#FFFFFF" transform="translate(1266,1910)"/>
<path d="M0 0 C0 12.87 0 25.74 0 39 C2.97 39 5.94 39 9 39 C9 40.98 9 42.96 9 45 C6.03 45 3.06 45 0 45 C0 49.62 0 54.24 0 59 C-2.64 59 -5.28 59 -8 59 C-8 54.38 -8 49.76 -8 45 C-17.9 45 -27.8 45 -38 45 C-39 38 -39 38 -36.859375 34.74609375 C-35.84157197 33.62598967 -34.80371835 32.52388567 -33.75 31.4375 C-32.63135403 30.21475941 -31.51553607 28.98942645 -30.40234375 27.76171875 C-29.54745361 26.83045166 -29.54745361 26.83045166 -28.67529297 25.88037109 C-26.06779603 22.95368188 -23.69637186 19.8591939 -21.3125 16.75 C-19.54894667 14.49422634 -17.77522687 12.24659188 -16 10 C-14.79150391 8.46472656 -14.79150391 8.46472656 -13.55859375 6.8984375 C-12.79675781 5.98320313 -12.03492188 5.06796875 -11.25 4.125 C-10.59515625 3.32320312 -9.9403125 2.52140625 -9.265625 1.6953125 C-7 0 -7 0 0 0 Z M-9 12 C-10.68071478 14.06200216 -12.31693273 16.14137275 -13.9375 18.25 C-18.55800488 24.20989258 -23.31745826 30.02226424 -28.19921875 35.76953125 C-30.10469642 37.65189967 -30.10469642 37.65189967 -30 39 C-22.74 39 -15.48 39 -8 39 C-8 30.09 -8 21.18 -8 12 C-8.33 12 -8.66 12 -9 12 Z " fill="#FFFFFF" transform="translate(1604,1904)"/>
<path d="M0 0 C3.96 0 7.92 0 12 0 C12 27.39 12 54.78 12 83 C8.04 83 4.08 83 0 83 C0 55.61 0 28.22 0 0 Z " fill="#E87429" transform="translate(1483,1780)"/>
<path d="M0 0 C1.48968792 1.11103057 2.97273044 2.23131771 4.4375 3.375 C3.46588065 5.80404837 2.68577827 7.18218815 0.6015625 8.80078125 C-1.5625 9.375 -1.5625 9.375 -3.7890625 8.29296875 C-4.58054687 7.72191406 -5.37203125 7.15085937 -6.1875 6.5625 C-12.20823035 2.72229809 -17.15444982 1.42948628 -24.203125 2.94140625 C-30.68873099 5.10651124 -34.26251357 8.44425516 -37.5625 14.375 C-40.82559627 21.49448277 -40.11782841 28.1981429 -37.46875 35.3359375 C-35.01853278 40.84892624 -31.11955445 44.14998609 -25.5625 46.375 C-18.04577641 48.39503358 -11.89443429 46.80810309 -5.21875 43.05859375 C-3.30000261 41.87288894 -1.41929929 40.65502785 0.4375 39.375 C1.7575 40.695 3.0775 42.015 4.4375 43.375 C2.30267173 48.56600348 -1.78027411 50.76511749 -6.5625 53.375 C-15.31028049 56.84141021 -24.06815863 55.94586962 -32.5625 52.375 C-39.54741107 48.51100664 -44.73434826 42.62214707 -47.375 35.04296875 C-49.84946748 24.95607702 -48.50909192 14.91775849 -43.08984375 5.93359375 C-32.556902 -7.18900744 -13.54470179 -9.45645611 0 0 Z " fill="#FFFFFF" transform="translate(1053.5625,1908.625)"/>
<path d="M0 0 C2.37310807 1.95781416 3.47733016 3.19902444 4.5 6.0625 C3.51 7.3825 2.52 8.7025 1.5 10.0625 C-1.62385647 9.45699478 -3.57190899 8.43114534 -6.125 6.5625 C-11.4960354 3.13460357 -16.62866798 2.51216359 -22.890625 3.40234375 C-29.24650944 5.05617082 -32.87627299 8.70926692 -36.5 14.0625 C-39.49997643 19.93201911 -39.49616134 27.24487572 -37.84765625 33.5625 C-35.66769778 39.10127861 -32.54689167 42.89750014 -27.5 46.0625 C-21.83818391 48.51951453 -16.43167333 48.52917353 -10.5 47.0625 C-8.27058776 45.96882607 -6.30926407 44.75633716 -4.2890625 43.31640625 C-2.43322285 42.01569768 -0.54552274 41.03119469 1.5 40.0625 C2.82 41.3825 4.14 42.7025 5.5 44.0625 C3.34879783 49.26593143 -0.67997742 51.47410992 -5.5 54.0625 C-13.06929959 57.12066309 -22.14239011 56.69192185 -29.86328125 54.34375 C-37.88704801 50.72915993 -43.38445017 44.18637994 -46.5 36.0625 C-49.05269692 27.8598339 -48.07020602 18.77229835 -44.5 11.0625 C-40.37501583 3.54913597 -34.49369344 -1.12490416 -26.5 -3.9375 C-17.52303494 -6.4694645 -7.91659284 -4.88511704 0 0 Z " fill="#FFFFFF" transform="translate(1172.5,1907.9375)"/>
<path d="M0 0 C2.37310807 1.95781416 3.47733016 3.19902444 4.5 6.0625 C3.51 7.3825 2.52 8.7025 1.5 10.0625 C-1.62385647 9.45699478 -3.57190899 8.43114534 -6.125 6.5625 C-11.4960354 3.13460357 -16.62866798 2.51216359 -22.890625 3.40234375 C-29.24650944 5.05617082 -32.87627299 8.70926692 -36.5 14.0625 C-39.49997643 19.93201911 -39.49616134 27.24487572 -37.84765625 33.5625 C-35.66769778 39.10127861 -32.54689167 42.89750014 -27.5 46.0625 C-21.83818391 48.51951453 -16.43167333 48.52917353 -10.5 47.0625 C-8.27058776 45.96882607 -6.30926407 44.75633716 -4.2890625 43.31640625 C-2.43322285 42.01569768 -0.54552274 41.03119469 1.5 40.0625 C2.82 41.3825 4.14 42.7025 5.5 44.0625 C3.34879783 49.26593143 -0.67997742 51.47410992 -5.5 54.0625 C-13.06929959 57.12066309 -22.14239011 56.69192185 -29.86328125 54.34375 C-37.88704801 50.72915993 -43.38445017 44.18637994 -46.5 36.0625 C-49.05269692 27.8598339 -48.07020602 18.77229835 -44.5 11.0625 C-40.37501583 3.54913597 -34.49369344 -1.12490416 -26.5 -3.9375 C-17.52303494 -6.4694645 -7.91659284 -4.88511704 0 0 Z " fill="#FFFFFF" transform="translate(1324.5,1907.9375)"/>
<path d="M0 0 C3.63 0 7.26 0 11 0 C11 27.39 11 54.78 11 83 C7.37 83 3.74 83 0 83 C0 55.61 0 28.22 0 0 Z " fill="#E87429" transform="translate(1579,1780)"/>
<path d="M0 0 C12.87 0 25.74 0 39 0 C39 9.00027397 39 9.00027397 36.72094727 13.48217773 C36.22365616 14.47938339 35.72636505 15.47658905 35.21400452 16.50401306 C34.67029709 17.55327469 34.12658966 18.60253632 33.56640625 19.68359375 C33.0138768 20.77970474 32.46134735 21.87581573 31.89207458 23.00514221 C30.13044288 26.4903839 28.34663727 29.96373496 26.5625 33.4375 C25.36511173 35.80071095 24.16913207 38.16463618 22.97460938 40.52929688 C20.79419741 44.83167074 18.61071386 49.13234947 16.40844727 53.42358398 C15.96654556 54.28547836 15.52464386 55.14737274 15.0693512 56.03538513 C14 58 14 58 13 59 C10.32941149 59.14115161 7.67567762 59.04247107 5 59 C6.70178953 53.09988708 9.46863485 47.8096451 12.2265625 42.3515625 C12.73424164 41.33903412 13.24192078 40.32650574 13.76498413 39.28329468 C15.38123185 36.06195992 17.00303193 32.84345768 18.625 29.625 C19.72432621 27.43638266 20.82328871 25.24758259 21.921875 23.05859375 C24.6096984 17.70324773 27.30501653 12.35177032 30 7 C20.1 7 10.2 7 0 7 C0 4.69 0 2.38 0 0 Z " fill="#FFFFFF" transform="translate(1619,1904)"/>
<path d="M0 0 C0.94875 0.04125 1.8975 0.0825 2.875 0.125 C2.24866906 4.6119084 0.48648327 8.30834505 -1.54321289 12.30200195 C-1.89448746 13.00498917 -2.24576202 13.70797638 -2.60768127 14.43226624 C-3.76533775 16.74549616 -4.93142625 19.05436353 -6.09765625 21.36328125 C-6.90387956 22.97013023 -7.70957195 24.57724571 -8.51475525 26.18461609 C-10.63183993 30.40735012 -12.75610818 34.62643014 -14.88189697 38.8447876 C-17.05126922 43.15280328 -19.21382223 47.46423867 -21.37695312 51.77539062 C-25.61963818 60.22861965 -29.86992074 68.67800382 -34.125 77.125 C-36.435 77.125 -38.745 77.125 -41.125 77.125 C-40.49797661 72.72236731 -38.81699944 69.08930902 -36.83032227 65.16333008 C-36.49201385 64.48306259 -36.15370544 63.8027951 -35.80514526 63.10191345 C-34.68978974 60.86312252 -33.56583611 58.62877662 -32.44140625 56.39453125 C-31.66250916 54.83725586 -30.8840269 53.27977292 -30.10594177 51.72209167 C-28.47633557 48.46296887 -26.84262204 45.20594932 -25.20581055 41.95043945 C-23.10622346 37.7739894 -21.01555533 33.59315207 -18.92775059 29.41080189 C-17.32231217 26.1965873 -15.7128958 22.98437821 -14.1021862 19.77280235 C-13.32962265 18.23152802 -12.55814062 16.68971108 -11.78775215 15.1473484 C-10.71212558 12.99572522 -9.63134766 10.8467711 -8.54907227 8.69848633 C-8.23055801 8.05898041 -7.91204376 7.41947449 -7.58387756 6.7605896 C-4.24861292 0.16994452 -4.24861292 0.16994452 0 0 Z " fill="#FFFFFF" transform="translate(1690.125,1895.875)"/>
<path d="M0 0 C2.31 0 4.62 0 7 0 C5.58939823 4.58862504 3.73270563 8.81556042 1.57592773 13.09106445 C1.235867 13.77308426 0.89580627 14.45510406 0.54544067 15.15779114 C-0.57128426 17.39492381 -1.69371194 19.62913912 -2.81640625 21.86328125 C-3.59615277 23.42158144 -4.37560296 24.98002993 -5.1547699 26.53862 C-6.78389198 29.79530384 -8.41568445 33.05063037 -10.04956055 36.30493164 C-12.14758697 40.48393318 -14.24028762 44.66557346 -16.33119297 48.84814167 C-17.93804776 52.06157998 -19.54698118 55.27397366 -21.15662956 58.48601341 C-21.92942361 60.02841275 -22.70172871 61.57105716 -23.47354317 63.11394691 C-24.54879064 65.26228402 -25.62665671 67.40928571 -26.70532227 69.5559082 C-27.02586075 70.19743835 -27.34639923 70.83896851 -27.676651 71.49993896 C-29.8855181 75.8855181 -29.8855181 75.8855181 -31 77 C-33.33297433 77.04092937 -35.66705225 77.04241723 -38 77 C-30.6147777 61.11832687 -22.79215252 45.46201531 -14.9387207 29.80877686 C-13.2473405 26.43643034 -11.55835659 23.06288407 -9.86914062 19.68945312 C-6.58170501 13.12515888 -3.29171901 6.56214754 0 0 Z " fill="#FFFFFF" transform="translate(1216,1896)"/>
<path d="M0 0 C0 19.47 0 38.94 0 59 C-2.31 59 -4.62 59 -7 59 C-7 42.17 -7 25.34 -7 8 C-9.64 8.99 -12.28 9.98 -15 11 C-15.99 11 -16.98 11 -18 11 C-18.66 9.02 -19.32 7.04 -20 5 C-18.3962669 4.35309078 -16.79199694 3.70751236 -15.1875 3.0625 C-13.84751953 2.52302734 -13.84751953 2.52302734 -12.48046875 1.97265625 C-7.64623135 0.07702615 -5.72270906 0 0 0 Z " fill="#FFFFFF" transform="translate(1495,1904)"/>
<path d="M0 0 C2.48033452 1.11537056 4.6429995 2.38551561 6.89453125 3.90625 C9.4845714 5.2517254 11.11871263 5.37787375 14 5 C16.33630748 2.60140956 16.33630748 2.60140956 18 0 C20.31 0.66 22.62 1.32 25 2 C23.74337944 6.50289035 22.16038089 9.5433334 19 13 C15.47836824 14.76081588 11.84379468 14.54744954 8 14 C5.32070777 12.86645329 2.86579967 11.56811746 0.359375 10.09375 C-2.34317674 8.84091144 -4.05562869 8.60278296 -7 9 C-8.8624438 11.40858714 -8.8624438 11.40858714 -10 14 C-12.76276177 13.47731534 -15.3260876 12.89130413 -18 12 C-16.74337944 7.49710965 -15.16038089 4.4566666 -12 1 C-8.25285164 -0.87357418 -4.079212 -0.5477799 0 0 Z " fill="#E87429" transform="translate(2357,1758)"/>
<path d="M0 0 C7.59 0 15.18 0 23 0 C23 2.31 23 4.62 23 7 C15.41 7 7.82 7 0 7 C0 4.69 0 2.38 0 0 Z " fill="#FFFFFF" transform="translate(1764,1934)"/>
</svg>
