<?xml version="1.0" standalone="no"?>
<!DOCTYPE svg PUBLIC "-//W3C//DTD SVG 20010904//EN"
 "http://www.w3.org/TR/2001/REC-SVG-20010904/DTD/svg10.dtd">
<svg version="1.0" xmlns="http://www.w3.org/2000/svg"
 width="4501.000000pt" height="4500.000000pt" viewBox="0 0 4501.000000 4500.000000"
 preserveAspectRatio="xMidYMid meet">

<g transform="translate(0.000000,4500.000000) scale(0.100000,-0.100000)"
fill="#000000" stroke="none">
<path d="M20060 37569 c-1066 -301 -1900 -621 -2820 -1081 -626 -313 -1096
-584 -1660 -961 -3927 -2621 -6433 -6917 -6784 -11632 -41 -544 -53 -1366 -27
-1860 78 -1509 330 -2861 785 -4210 1365 -4050 4425 -7386 8376 -9132 1562
-691 3242 -1116 4930 -1247 460 -36 604 -41 1245 -41 661 0 806 5 1300 46
2803 229 5449 1216 7745 2887 102 74 187 136 189 138 7 6 -128 164 -224 260
-319 320 -736 545 -1184 638 -194 41 -295 50 -521 50 -246 -1 -405 -21 -625
-78 -209 -54 -320 -100 -680 -281 -356 -178 -558 -274 -810 -382 -1295 -558
-2667 -900 -4075 -1017 -353 -30 -507 -37 -925 -43 -1041 -15 -1988 79 -2970
292 -1381 300 -2726 835 -3950 1571 -775 465 -1505 1013 -2175 1631 -240 221
-692 680 -895 908 -1936 2173 -3068 4821 -3289 7695 -32 405 -38 657 -33 1184
5 507 15 701 52 1096 329 3442 2007 6621 4668 8841 916 765 1918 1392 3022
1892 309 140 452 224 644 377 406 323 708 790 836 1294 55 216 69 342 69 591
0 224 -13 356 -53 528 -13 58 -20 72 -36 74 -11 0 -67 -12 -125 -28z"/>
<path d="M23420 32683 c-1479 -108 -2706 -1187 -2994 -2633 -64 -321 -59 -29
-66 -3715 -7 -3667 -2 -3377 -61 -3595 -133 -491 -506 -903 -1054 -1166 -404
-193 -799 -274 -1195 -245 -440 34 -871 159 -1255 367 -320 172 -431 215 -612
233 -329 34 -653 -98 -956 -388 -89 -86 -1480 -1682 -1485 -1705 -10 -43 529
-609 768 -806 665 -550 1393 -902 2250 -1086 818 -176 1799 -186 2718 -28 926
159 1829 507 2530 976 l102 68 0 -2930 0 -2931 1008 4 c981 3 1010 4 1119 25
263 50 472 131 686 263 112 70 188 130 301 239 281 271 454 581 544 978 l26
117 3 1368 4 1367 907 0 c908 0 1184 7 1512 36 1294 114 2337 499 3119 1152
610 510 1055 1212 1286 2031 146 518 208 1006 208 1636 -1 334 -10 519 -44
820 -167 1496 -822 2669 -1889 3379 -669 445 -1495 719 -2440 810 -342 33
-488 36 -2027 36 l-1553 0 0 2665 0 2665 -707 -2 c-390 -1 -728 -3 -753 -5z
m3934 -8697 c505 -70 865 -235 1129 -516 90 -96 181 -229 237 -345 218 -456
208 -1106 -21 -1546 -239 -456 -717 -733 -1387 -804 -106 -11 -293 -15 -824
-15 l-688 0 0 1618 c0 890 3 1622 7 1626 5 4 327 6 718 3 590 -4 730 -7 829
-21z"/>
<path d="M34407 14809 c-758 -62 -1374 -611 -1539 -1369 -20 -93 -22 -133 -22
-340 0 -206 2 -247 22 -335 83 -376 273 -706 542 -942 206 -182 460 -317 715
-382 313 -79 686 -64 981 40 203 71 415 195 578 337 218 191 407 478 494 753
64 200 76 282 77 524 0 243 -15 349 -75 538 -41 126 -156 353 -235 462 -302
419 -753 673 -1269 715 -71 5 -138 9 -150 9 -12 -1 -65 -5 -119 -10z"/>
</g>
</svg>
